<svg id="custom-report" xmlns="http://www.w3.org/2000/svg" xmlns:xlink="http://www.w3.org/1999/xlink" width="125.07" height="120.088" viewBox="0 0 125.07 120.088">
  <defs>
    <linearGradient id="linear-gradient" x1="0.5" y1="1" x2="0.5" gradientUnits="objectBoundingBox">
      <stop offset="0" stop-color="gray" stop-opacity="0.251"/>
      <stop offset="0.54" stop-color="gray" stop-opacity="0.122"/>
      <stop offset="1" stop-color="gray" stop-opacity="0.102"/>
    </linearGradient>
    <linearGradient id="linear-gradient-3" x1="0" y1="0.5" x2="1" y2="0.5" xlink:href="#linear-gradient"/>
    <linearGradient id="linear-gradient-4" x1="0.5" x2="0.5" xlink:href="#linear-gradient"/>
    <linearGradient id="linear-gradient-5" x1="0.5" x2="0.5" xlink:href="#linear-gradient"/>
  </defs>
  <rect id="Rectangle_198" data-name="Rectangle 198" width="105.856" height="120.088" transform="translate(19.215)" fill="url(#linear-gradient)"/>
  <rect id="Rectangle_199" data-name="Rectangle 199" width="102.476" height="115.641" transform="translate(20.816 2.313)" fill="#fff"/>
  <rect id="Rectangle_200" data-name="Rectangle 200" width="58.176" height="37.005" transform="translate(10.496 21.35)" fill="#6c63ff" opacity="0.2"/>
  <rect id="Rectangle_201" data-name="Rectangle 201" width="66.716" height="37.894" transform="translate(0 16.189)" fill="url(#linear-gradient)"/>
  <rect id="Rectangle_202" data-name="Rectangle 202" width="65.115" height="31.491" transform="translate(0.712 21.705)" fill="#fff"/>
  <rect id="Rectangle_203" data-name="Rectangle 203" width="22.594" height="23.84" transform="translate(5.159 24.374)" fill="url(#linear-gradient-3)"/>
  <rect id="Rectangle_204" data-name="Rectangle 204" width="21.35" height="22.772" transform="translate(5.871 24.907)" fill="#6c63ff"/>
  <path id="Path_273" data-name="Path 273" d="M284.988,245.8a15.089,15.089,0,0,0-.916-3.974,6.572,6.572,0,0,0-2.508-3.147,2.868,2.868,0,0,0-1.386-.478,2.612,2.612,0,0,0-2.211,1.357,6.335,6.335,0,0,0-.413.84,1.955,1.955,0,0,0-1.622,1.791,4.984,4.984,0,0,0,.7,9.41v.849a5,5,0,0,0-3.736,4.823v2.313h9.963V257.27a5,5,0,0,0-3.733-4.823V251.6a4.984,4.984,0,0,0,3.736-4.824v-.035l.561,1.248a6.767,6.767,0,0,1,.871,3.75C285.321,249.984,285.237,247.816,284.988,245.8Z" transform="translate(-262.48 -211.902)" fill="#fff"/>
  <rect id="Rectangle_205" data-name="Rectangle 205" width="65.115" height="4.804" transform="translate(0.712 16.901)" fill="#6c63ff"/>
  <rect id="Rectangle_206" data-name="Rectangle 206" width="24.729" height="1.601" transform="translate(35.937 31.578)" fill="#e0e0e0"/>
  <rect id="Rectangle_207" data-name="Rectangle 207" width="24.729" height="1.601" transform="translate(35.937 38.34)" fill="#f5f5f5"/>
  <rect id="Rectangle_208" data-name="Rectangle 208" width="14.588" height="1.601" transform="translate(35.761 34.959)" fill="#6c63ff" opacity="0.2"/>
  <rect id="Rectangle_209" data-name="Rectangle 209" width="9.963" height="1.601" transform="translate(35.761 41.719)" fill="#69f0ae" opacity="0.2"/>
  <rect id="Rectangle_210" data-name="Rectangle 210" width="9.963" height="1.601" transform="translate(47.501 41.719)" fill="#69f0ae"/>
  <rect id="Rectangle_211" data-name="Rectangle 211" width="85.93" height="3.024" transform="translate(29.533 66.894)" fill="#e0e0e0"/>
  <rect id="Rectangle_212" data-name="Rectangle 212" width="28.643" height="3.024" transform="translate(29.533 73.476)" fill="#e0e0e0"/>
  <rect id="Rectangle_213" data-name="Rectangle 213" width="28.643" height="3.024" transform="translate(86.819 73.476)" fill="#69f0ae"/>
  <rect id="Rectangle_214" data-name="Rectangle 214" width="85.93" height="3.024" transform="translate(29.533 80.059)" fill="#e0e0e0"/>
  <rect id="Rectangle_215" data-name="Rectangle 215" width="85.93" height="3.024" transform="translate(29.533 86.643)" fill="#e0e0e0"/>
  <rect id="Rectangle_216" data-name="Rectangle 216" width="9.074" height="3.736" transform="translate(29.177 92.869)" fill="url(#linear-gradient-4)"/>
  <rect id="Rectangle_217" data-name="Rectangle 217" width="8.54" height="3.024" transform="translate(29.533 93.224)" fill="#6c63ff"/>
  <rect id="Rectangle_218" data-name="Rectangle 218" width="8.54" height="3.024" transform="translate(67.962 93.224)" fill="#69f0ae"/>
  <rect id="Rectangle_219" data-name="Rectangle 219" width="8.54" height="3.024" transform="translate(106.923 93.224)" fill="#69f0ae"/>
  <rect id="Rectangle_220" data-name="Rectangle 220" width="50.704" height="11.387" transform="translate(65.827 103.01)" fill="url(#linear-gradient-5)"/>
  <rect id="Rectangle_221" data-name="Rectangle 221" width="48.747" height="8.718" transform="translate(66.716 104.254)" fill="#6c63ff"/>
  <rect id="Rectangle_222" data-name="Rectangle 222" width="48.747" height="8.718" transform="translate(66.716 104.254)" opacity="0.2"/>
  <rect id="Rectangle_223" data-name="Rectangle 223" width="32.201" height="24.552" transform="translate(84.329 14.588)" fill="url(#linear-gradient)"/>
  <rect id="Rectangle_224" data-name="Rectangle 224" width="29.889" height="21.35" transform="translate(85.575 16.189)" fill="#6c63ff"/>
  <rect id="Rectangle_225" data-name="Rectangle 225" width="29.889" height="21.35" transform="translate(85.575 16.189)" fill="#fff" opacity="0.2"/>
</svg>
