<svg xmlns="http://www.w3.org/2000/svg" width="85.433" height="91.926" viewBox="0 0 85.433 91.926">
  <g id="Group_15" data-name="Group 15" transform="translate(-0.004 0)">
    <path id="Path_80" data-name="Path 80" d="M365.2,191.193l-36.93,9.51a4.883,4.883,0,0,1-5.94-3.507l-11.168-43.371a4.883,4.883,0,0,1,3.507-5.94l34.357-8.847,8.794,3.937L368.7,185.253a4.883,4.883,0,0,1-3.507,5.94Z" transform="translate(-310.999 -139.037)" fill="#f2f2f2"/>
    <path id="Path_81" data-name="Path 81" d="M323.111,157.791a3.477,3.477,0,0,0-2.5,4.23l11.169,43.371a3.477,3.477,0,0,0,4.23,2.5l36.93-9.51a3.477,3.477,0,0,0,2.5-4.23L364.72,152.526l-7.728-3.46Z" transform="translate(-319.095 -147.583)" fill="#fff"/>
    <path id="Path_82" data-name="Path 82" d="M576.433,143.866l-5.715,1.472a1.625,1.625,0,0,1-1.978-1.168l-1.087-4.221a.1.1,0,0,1,.14-.118l8.657,3.845a.1.1,0,0,1-.016.191Z" transform="translate(-529.711 -139.706)" fill="#f2f2f2"/>
    <path id="Path_83" data-name="Path 83" d="M503.943,408.546l-16.814,4.33a.812.812,0,1,1-.405-1.573l16.814-4.33a.812.812,0,1,1,.405,1.573Z" transform="translate(-460.228 -367.348)" fill="#ccc"/>
    <path id="Path_84" data-name="Path 84" d="M511.813,420.854l-20.058,5.165a.812.812,0,0,1-.405-1.573l20.058-5.165a.812.812,0,1,1,.405,1.573Z" transform="translate(-464.169 -377.836)" fill="#ccc"/>
    <circle id="Ellipse_44" data-name="Ellipse 44" cx="2.871" cy="2.871" r="2.871" transform="translate(17.169 45.001)" fill="#e6e6e6"/>
    <path id="Path_85" data-name="Path 85" d="M420.815,233.6l-22.33,5.748a2.516,2.516,0,0,1-3.06-1.807l-4.68-18.179a2.516,2.516,0,0,1,1.807-3.06l22.33-5.748a2.516,2.516,0,0,1,3.06,1.807l4.68,18.179A2.516,2.516,0,0,1,420.815,233.6Z" transform="translate(-378.888 -199.919)" fill="#fff"/>
    <path id="Path_86" data-name="Path 86" d="M420.815,233.6l-22.33,5.748a2.516,2.516,0,0,1-3.06-1.807l-4.68-18.179a2.516,2.516,0,0,1,1.807-3.06l22.33-5.748a2.516,2.516,0,0,1,3.06,1.807l4.68,18.179A2.516,2.516,0,0,1,420.815,233.6Zm-28.189-17.012a2.22,2.22,0,0,0-1.594,2.7l4.68,18.179a2.22,2.22,0,0,0,2.7,1.594l22.33-5.748a2.22,2.22,0,0,0,1.594-2.7l-4.68-18.179a2.22,2.22,0,0,0-2.7-1.594Z" transform="translate(-378.888 -199.919)" fill="#e6e6e6"/>
    <path id="Path_411" data-name="Path 411" d="M478.94,247.761l-11.27,2.9a.4.4,0,0,1-.489-.254.389.389,0,0,1,.274-.494l11.472-2.953c.463.235.341.715.013.8Z" transform="translate(-444.077 -231.009)" fill="#f2f2f2"/>
    <path id="Path_412" data-name="Path 412" d="M482.383,261.134l-11.27,2.9a.4.4,0,0,1-.489-.254.389.389,0,0,1,.274-.494l11.472-2.953c.463.235.341.715.013.8Z" transform="translate(-447.011 -242.406)" fill="#f2f2f2"/>
    <path id="Path_413" data-name="Path 413" d="M430.51,268.864l-3.439.885a.438.438,0,0,1-.533-.315l-1.045-4.059a.438.438,0,0,1,.315-.533l3.439-.885a.438.438,0,0,1,.533.315l1.045,4.059A.438.438,0,0,1,430.51,268.864Z" transform="translate(-408.555 -245.482)" fill="#e6e6e6"/>
    <path id="Path_414" data-name="Path 414" d="M455.02,288.575,437.821,293a.4.4,0,0,1-.489-.254.389.389,0,0,1,.274-.494l17.4-4.479C455.471,288.01,455.349,288.49,455.02,288.575Z" transform="translate(-418.64 -265.79)" fill="#f2f2f2"/>
    <path id="Path_415" data-name="Path 415" d="M458.464,301.952l-17.2,4.427a.4.4,0,0,1-.489-.254.389.389,0,0,1,.274-.494l17.4-4.48c.463.235.341.715.013.8Z" transform="translate(-421.575 -277.191)" fill="#f2f2f2"/>
    <path id="Path_416" data-name="Path 416" d="M461.906,315.321l-17.2,4.427a.4.4,0,0,1-.489-.254.389.389,0,0,1,.274-.494l17.4-4.48c.463.235.341.715.013.8Z" transform="translate(-424.508 -288.584)" fill="#f2f2f2"/>
    <path id="Path_417" data-name="Path 417" d="M465.349,328.7l-17.2,4.427a.4.4,0,0,1-.489-.254.389.389,0,0,1,.274-.494l17.4-4.479C465.8,328.134,465.678,328.614,465.349,328.7Z" transform="translate(-427.442 -299.984)" fill="#f2f2f2"/>
    <path id="Path_418" data-name="Path 418" d="M468.791,342.068l-17.2,4.427a.4.4,0,0,1-.489-.254.389.389,0,0,1,.274-.494l17.4-4.48c.463.235.341.715.013.8Z" transform="translate(-430.375 -311.377)" fill="#f2f2f2"/>
    <path id="Path_395" data-name="Path 395" d="M441.318,455.73a.3.3,0,0,1-.188-.013l0,0-.782-.332a.3.3,0,0,1,.235-.552l.507.216.664-1.562a.3.3,0,0,1,.393-.159h0l0,.01,0-.01a.3.3,0,0,1,.158.393l-.781,1.837a.3.3,0,0,1-.2.173Z" transform="translate(-421.067 -406.852)" fill="#fff"/>
    <path id="Path_87" data-name="Path 87" d="M525.487,289.256H487.353a4.883,4.883,0,0,1-4.878-4.878V239.593a4.883,4.883,0,0,1,4.878-4.878H522.83l7.534,6.005v43.658A4.883,4.883,0,0,1,525.487,289.256Z" transform="translate(-457.126 -220.573)" fill="#e6e6e6"/>
    <path id="Path_88" data-name="Path 88" d="M495.447,244.215a3.477,3.477,0,0,0-3.473,3.473v44.786a3.477,3.477,0,0,0,3.473,3.473h38.134a3.477,3.477,0,0,0,3.474-3.473V249.492l-6.621-5.278Z" transform="translate(-465.221 -228.668)" fill="#fff"/>
    <path id="Path_89" data-name="Path 89" d="M618.509,322.953H601.147a.812.812,0,0,1,0-1.625h17.362a.812.812,0,0,1,0,1.625Z" transform="translate(-557.565 -294.384)" fill="#6c63ff"/>
    <path id="Path_90" data-name="Path 90" d="M621.859,341.5H601.147a.812.812,0,0,1,0-1.625h20.713a.812.812,0,0,1,0,1.625Z" transform="translate(-557.565 -310.19)" fill="#6c63ff"/>
    <path id="Path_91" data-name="Path 91" d="M618.513,404.443H601.151a.812.812,0,0,0,0,1.624h17.362a.812.812,0,0,0,0-1.624Z" transform="translate(-557.569 -365.214)" fill="#ccc"/>
    <path id="Path_92" data-name="Path 92" d="M621.864,422.993H601.151a.812.812,0,0,0,0,1.624h20.712a.812.812,0,1,0,0-1.624Z" transform="translate(-557.569 -381.022)" fill="#ccc"/>
    <path id="Path_93" data-name="Path 93" d="M618.509,489.188H601.147a.812.812,0,0,1,0-1.625h17.362a.812.812,0,0,1,0,1.625Z" transform="translate(-557.565 -436.048)" fill="#ccc"/>
    <path id="Path_94" data-name="Path 94" d="M621.859,507.735H601.147a.812.812,0,0,1,0-1.625h20.713a.812.812,0,0,1,0,1.625Z" transform="translate(-557.565 -451.854)" fill="#ccc"/>
    <circle id="Ellipse_44-2" data-name="Ellipse 44" cx="2.871" cy="2.871" r="2.871" transform="translate(33.481 26.256)" fill="#6c63ff"/>
    <path id="Path_395-2" data-name="Path 395" d="M549.372,330.917a.3.3,0,0,1-.179-.06l0,0-.675-.516a.3.3,0,1,1,.365-.476l.437.335,1.033-1.347a.3.3,0,0,1,.42-.056h0l-.006.009.007-.009a.3.3,0,0,1,.055.42L549.61,330.8a.3.3,0,0,1-.238.117Z" transform="translate(-513.304 -300.695)" fill="#fff"/>
    <path id="Path_95" data-name="Path 95" d="M545.231,402.657a2.871,2.871,0,0,1-2.87,2.872.615.615,0,0,1-.074,0,2.871,2.871,0,1,1,2.944-2.869Z" transform="translate(-505.714 -361.245)" fill="#ccc"/>
    <circle id="Ellipse_44-3" data-name="Ellipse 44" cx="2.871" cy="2.871" r="2.871" transform="translate(33.481 50.827)" fill="#ccc"/>
    <path id="Path_96" data-name="Path 96" d="M762.089,241.567h-5.9a1.625,1.625,0,0,1-1.625-1.625v-4.359a.1.1,0,0,1,.165-.08l7.425,5.882a.1.1,0,0,1-.063.181Z" transform="translate(-688.996 -221.227)" fill="#ccc"/>
    <path id="Path_97" data-name="Path 97" d="M558.785,402.894a2.871,2.871,0,0,1-2.87,2.872.623.623,0,0,1-.074,0,6.215,6.215,0,0,1,.557-5.7A2.872,2.872,0,0,1,558.785,402.894Z" transform="translate(-519.267 -361.481)" fill="#6c63ff"/>
    <path id="Path_98" data-name="Path 98" d="M600.334,405.256a.814.814,0,0,1,.813-.813h4.326a6.146,6.146,0,0,1,.534,1.624h-4.86a.813.813,0,0,1-.813-.811Z" transform="translate(-557.564 -365.214)" fill="#6c63ff"/>
    <path id="Path_99" data-name="Path 99" d="M606.112,422.993a6.2,6.2,0,0,1-.216,1.624h-4.745a.812.812,0,0,1,0-1.624Z" transform="translate(-557.568 -381.022)" fill="#6c63ff"/>
    <path id="Path_100" data-name="Path 100" d="M642.679,446.6a.887.887,0,0,1-1.219.3l-10.347-6.311a.887.887,0,0,1,.924-1.514l10.347,6.311A.887.887,0,0,1,642.679,446.6Z" transform="translate(-583.432 -394.616)" fill="#3f3d56"/>
    <path id="Path_101" data-name="Path 101" d="M565.978,385.858a7.095,7.095,0,1,1-2.362-9.751A7.095,7.095,0,0,1,565.978,385.858Zm-10.6-6.465a5.321,5.321,0,1,0,7.314-1.772,5.321,5.321,0,0,0-7.314,1.772Z" transform="translate(-517.078 -340.18)" fill="#3f3d56"/>
    <circle id="Ellipse_41" data-name="Ellipse 41" cx="3.63" cy="3.63" r="3.63" transform="translate(68.002 35.86)" fill="#a0616a"/>
    <path id="Path_102" data-name="Path 102" d="M793.567,463.344a1.626,1.626,0,0,1,1.23-2.092,1.547,1.547,0,0,1,.216-.027l3.824-6.137-3.493-3.321a1.394,1.394,0,1,1,1.939-2l4.823,4.756.01.012a1.263,1.263,0,0,1-.088,1.505l-5.358,6.337a1.517,1.517,0,0,1,.04.155,1.626,1.626,0,0,1-1.46,1.939q-.069.006-.138.006A1.631,1.631,0,0,1,793.567,463.344Z" transform="translate(-722.169 -403.502)" fill="#a0616a"/>
    <path id="Path_103" data-name="Path 103" d="M428.733,568.7h-1.812l-.862-6.99h2.674Z" transform="translate(-363.08 -478.686)" fill="#a0616a"/>
    <path id="Path_104" data-name="Path 104" d="M724.589,746.383h-5.843v-.074a2.274,2.274,0,0,1,2.274-2.274h3.569Z" transform="translate(-658.474 -654.611)" fill="#2f2e41"/>
    <path id="Path_105" data-name="Path 105" d="M532.142,557.425l-1.557.927-4.317-5.564,2.3-1.368Z" transform="translate(-448.478 -469.915)" fill="#a0616a"/>
    <path id="Path_106" data-name="Path 106" d="M854.76,728.066l-5.02,2.989-.038-.064a2.274,2.274,0,0,1,.791-3.118h0l3.066-1.826Z" transform="translate(-769.801 -639.283)" fill="#2f2e41"/>
    <path id="Path_107" data-name="Path 107" d="M730.187,536.768c-1.214-14.294-1.936-27.573,2.5-32.99l.034-.042,7.468,2.987.012.027c.025.055,2.509,5.518,1.93,9.193l1.842,8.473,6.006,10.057a.665.665,0,0,1-.3.95l-2.61,1.148a.668.668,0,0,1-.835-.261L739.7,525.657l-3.69-8.172a.222.222,0,0,0-.423.068l-2.046,19.229a.664.664,0,0,1-.661.595H730.85A.67.67,0,0,1,730.187,536.768Z" transform="translate(-667.437 -449.83)" fill="#2f2e41"/>
    <path id="Path_108" data-name="Path 108" d="M751.816,448.791l-.036-.017-.006-.039a12.613,12.613,0,0,1,.981-6.448,5.12,5.12,0,0,1,5.942-3.066h0a5.113,5.113,0,0,1,3.261,2.507,5.058,5.058,0,0,1,.351,4.054c-1.173,3.429-2.694,6.638-2.709,6.67l-.032.067Z" transform="translate(-686.539 -394.73)" fill="#6c63ff"/>
    <path id="Path_109" data-name="Path 109" d="M693.919,453.279a1.626,1.626,0,0,1,2.39.42,1.556,1.556,0,0,1,.1.193l7.088,1.433,1.887-4.435A1.394,1.394,0,1,1,707.94,452l-2.766,6.183-.008.013a1.263,1.263,0,0,1-1.441.445l-7.812-2.8a1.524,1.524,0,0,1-.131.092,1.626,1.626,0,0,1-2.327-.688q-.03-.063-.054-.127A1.631,1.631,0,0,1,693.919,453.279Z" transform="translate(-636.79 -404.081)" fill="#a0616a"/>
    <path id="Path_110" data-name="Path 110" d="M783.34,380.627a2.96,2.96,0,0,0-1.533-1.416,4.988,4.988,0,0,0-2.706.229,5.014,5.014,0,0,1-2.1.124,2.362,2.362,0,0,1-1.68-1.174c-.465-.932-.073-2.043-.1-3.084a3.745,3.745,0,0,0-4.719-3.519,1.868,1.868,0,0,0-2.161.388,2.513,2.513,0,0,0-2.513,2.513h2.4a2.387,2.387,0,0,0,.363,1.764c.424.623,1.162,1.074,1.3,1.814a2.319,2.319,0,0,1-.862,1.92,3.988,3.988,0,0,0-1.265,1.751,2.171,2.171,0,0,0,.311,1.562,5.086,5.086,0,0,0,1.092,1.2,16.023,16.023,0,0,0,6.657,3.406,7.913,7.913,0,0,0,5.228-.242,5.192,5.192,0,0,0,2.286-7.238Z" transform="translate(-698.593 -337.249)" fill="#2f2e41"/>
    <path id="Path_111" data-name="Path 111" d="M725.232,759.259H697.149a.148.148,0,1,1,0-.3h28.083a.148.148,0,1,1,0,.3Z" transform="translate(-639.943 -667.333)" fill="#ccc"/>
  </g>
</svg>
