<svg id="Group_5" data-name="Group 5" xmlns="http://www.w3.org/2000/svg" xmlns:xlink="http://www.w3.org/1999/xlink" width="54.306" height="42.896" viewBox="0 0 54.306 42.896">
  <defs>
    <linearGradient id="linear-gradient" x1="0.5" y1="1" x2="0.5" gradientUnits="objectBoundingBox">
      <stop offset="0" stop-color="gray" stop-opacity="0.251"/>
      <stop offset="0.54" stop-color="gray" stop-opacity="0.122"/>
      <stop offset="1" stop-color="gray" stop-opacity="0.102"/>
    </linearGradient>
    <linearGradient id="linear-gradient-4" y2="-0.001" xlink:href="#linear-gradient"/>
    <linearGradient id="linear-gradient-7" x1="29.773" y1="26.262" x2="29.773" y2="25.263" xlink:href="#linear-gradient"/>
    <linearGradient id="linear-gradient-8" y1="0.999" xlink:href="#linear-gradient"/>
    <linearGradient id="linear-gradient-9" x1="35.813" y1="30.815" x2="35.813" y2="29.815" xlink:href="#linear-gradient"/>
    <linearGradient id="linear-gradient-10" x1="39.503" y1="24.82" x2="39.503" y2="23.82" xlink:href="#linear-gradient"/>
    <linearGradient id="linear-gradient-11" x1="30.785" y1="19.69" x2="30.785" y2="18.69" xlink:href="#linear-gradient"/>
    <linearGradient id="linear-gradient-12" x1="25.655" y1="10.971" x2="25.655" y2="9.972" xlink:href="#linear-gradient"/>
    <linearGradient id="linear-gradient-13" x1="25.656" y1="0.713" x2="25.656" y2="-0.287" xlink:href="#linear-gradient"/>
    <linearGradient id="linear-gradient-14" x1="40.017" y1="-13.391" x2="40.017" y2="-14.391" xlink:href="#linear-gradient"/>
    <linearGradient id="linear-gradient-15" x1="50.274" y1="-13.135" x2="50.274" y2="-14.134" xlink:href="#linear-gradient"/>
    <linearGradient id="linear-gradient-16" x1="58.481" y1="-8.006" x2="58.481" y2="-9.006" xlink:href="#linear-gradient"/>
    <linearGradient id="linear-gradient-17" x1="63.609" y1="0.2" x2="63.609" y2="-0.799" xlink:href="#linear-gradient"/>
  </defs>
  <rect id="Rectangle_34" data-name="Rectangle 34" width="51.992" height="34.379" transform="translate(2.314)" fill="url(#linear-gradient)"/>
  <rect id="Rectangle_35" data-name="Rectangle 35" width="50.952" height="29.278" transform="translate(2.769 4.062)" fill="#fff"/>
  <rect id="Rectangle_36" data-name="Rectangle 36" width="50.952" height="3.347" transform="translate(2.769 0.715)" fill="#6c63ff"/>
  <rect id="Rectangle_37" data-name="Rectangle 37" width="49.652" height="25.541" transform="translate(3.484 6.174)" fill="url(#linear-gradient)"/>
  <rect id="Rectangle_38" data-name="Rectangle 38" width="5.979" height="4.777" transform="translate(4.101 6.629)" fill="#6c63ff" opacity="0.5"/>
  <rect id="Rectangle_39" data-name="Rectangle 39" width="5.979" height="4.777" transform="translate(10.146 6.629)" fill="#fff"/>
  <rect id="Rectangle_40" data-name="Rectangle 40" width="5.979" height="4.777" transform="translate(16.19 6.629)" fill="#6c63ff" opacity="0.2"/>
  <rect id="Rectangle_41" data-name="Rectangle 41" width="5.979" height="4.777" transform="translate(22.234 6.629)" fill="#fff"/>
  <rect id="Rectangle_42" data-name="Rectangle 42" width="5.979" height="4.777" transform="translate(28.278 6.629)" fill="#fff"/>
  <rect id="Rectangle_43" data-name="Rectangle 43" width="5.979" height="4.777" transform="translate(34.322 6.629)" fill="#6c63ff" opacity="0.5"/>
  <rect id="Rectangle_44" data-name="Rectangle 44" width="5.979" height="4.777" transform="translate(40.366 6.629)" fill="#fff"/>
  <rect id="Rectangle_45" data-name="Rectangle 45" width="5.979" height="4.777" transform="translate(46.41 6.629)" fill="#6c63ff" opacity="0.2"/>
  <rect id="Rectangle_46" data-name="Rectangle 46" width="5.979" height="4.777" transform="translate(4.101 11.503)" fill="#6c63ff" opacity="0.2"/>
  <rect id="Rectangle_47" data-name="Rectangle 47" width="5.979" height="4.777" transform="translate(10.146 11.503)" fill="#6c63ff" opacity="0.2"/>
  <rect id="Rectangle_48" data-name="Rectangle 48" width="5.979" height="4.777" transform="translate(16.19 11.503)" fill="#fff"/>
  <rect id="Rectangle_49" data-name="Rectangle 49" width="5.979" height="4.777" transform="translate(22.234 11.503)" fill="#6c63ff" opacity="0.5"/>
  <rect id="Rectangle_50" data-name="Rectangle 50" width="5.979" height="4.777" transform="translate(28.278 11.503)" fill="#fff"/>
  <rect id="Rectangle_51" data-name="Rectangle 51" width="5.979" height="4.777" transform="translate(34.322 11.503)" fill="#6c63ff" opacity="0.2"/>
  <rect id="Rectangle_52" data-name="Rectangle 52" width="5.979" height="4.777" transform="translate(40.366 11.503)" fill="#6c63ff" opacity="0.5"/>
  <rect id="Rectangle_53" data-name="Rectangle 53" width="5.979" height="4.777" transform="translate(46.41 11.503)" fill="#fff"/>
  <rect id="Rectangle_54" data-name="Rectangle 54" width="5.979" height="4.777" transform="translate(4.101 16.312)" fill="#fff"/>
  <rect id="Rectangle_55" data-name="Rectangle 55" width="5.979" height="4.777" transform="translate(10.146 16.312)" fill="#fff"/>
  <rect id="Rectangle_56" data-name="Rectangle 56" width="5.979" height="4.777" transform="translate(16.19 16.312)" fill="#6c63ff" opacity="0.2"/>
  <rect id="Rectangle_57" data-name="Rectangle 57" width="5.979" height="4.777" transform="translate(22.234 16.312)" fill="#fff"/>
  <rect id="Rectangle_58" data-name="Rectangle 58" width="5.979" height="4.777" transform="translate(28.278 16.312)" fill="#6c63ff" opacity="0.2"/>
  <rect id="Rectangle_59" data-name="Rectangle 59" width="5.979" height="4.777" transform="translate(34.322 16.312)" fill="#fff"/>
  <rect id="Rectangle_60" data-name="Rectangle 60" width="5.979" height="4.777" transform="translate(40.366 16.312)" fill="#fff"/>
  <rect id="Rectangle_61" data-name="Rectangle 61" width="5.979" height="4.777" transform="translate(46.41 16.312)" fill="#6c63ff" opacity="0.2"/>
  <rect id="Rectangle_62" data-name="Rectangle 62" width="5.979" height="4.777" transform="translate(4.101 21.122)" fill="#fff"/>
  <rect id="Rectangle_63" data-name="Rectangle 63" width="5.979" height="4.777" transform="translate(10.146 21.122)" fill="#6c63ff" opacity="0.5"/>
  <rect id="Rectangle_64" data-name="Rectangle 64" width="5.979" height="4.777" transform="translate(16.19 21.122)" fill="#6c63ff" opacity="0.5"/>
  <rect id="Rectangle_65" data-name="Rectangle 65" width="5.979" height="4.777" transform="translate(22.234 21.122)" fill="#fff"/>
  <rect id="Rectangle_66" data-name="Rectangle 66" width="5.979" height="4.777" transform="translate(28.278 21.122)" fill="#fff"/>
  <rect id="Rectangle_67" data-name="Rectangle 67" width="5.979" height="4.777" transform="translate(34.322 21.122)" fill="#6c63ff" opacity="0.5"/>
  <rect id="Rectangle_68" data-name="Rectangle 68" width="5.979" height="4.777" transform="translate(40.366 21.122)" fill="#fff"/>
  <rect id="Rectangle_69" data-name="Rectangle 69" width="5.979" height="4.777" transform="translate(46.41 21.122)" fill="#6c63ff" opacity="0.5"/>
  <rect id="Rectangle_70" data-name="Rectangle 70" width="5.979" height="4.777" transform="translate(4.101 25.996)" fill="#6c63ff" opacity="0.5"/>
  <rect id="Rectangle_71" data-name="Rectangle 71" width="5.979" height="4.777" transform="translate(10.146 25.996)" fill="#6c63ff" opacity="0.2"/>
  <rect id="Rectangle_72" data-name="Rectangle 72" width="5.979" height="4.777" transform="translate(16.19 25.996)" fill="#fff"/>
  <rect id="Rectangle_73" data-name="Rectangle 73" width="5.979" height="4.777" transform="translate(22.234 25.996)" fill="#6c63ff" opacity="0.5"/>
  <rect id="Rectangle_74" data-name="Rectangle 74" width="5.979" height="4.777" transform="translate(28.278 25.996)" fill="#6c63ff" opacity="0.2"/>
  <rect id="Rectangle_75" data-name="Rectangle 75" width="5.979" height="4.777" transform="translate(34.322 25.996)" fill="#fff"/>
  <rect id="Rectangle_76" data-name="Rectangle 76" width="5.979" height="4.777" transform="translate(40.366 25.996)" fill="#6c63ff" opacity="0.2"/>
  <rect id="Rectangle_77" data-name="Rectangle 77" width="5.979" height="4.777" transform="translate(46.41 25.996)" fill="#fff"/>
  <rect id="Rectangle_78" data-name="Rectangle 78" width="1.82" height="1.82" transform="translate(4.589 16.767)" fill="#69f0ae"/>
  <rect id="Rectangle_79" data-name="Rectangle 79" width="1.82" height="1.82" transform="translate(22.656 7.149)" fill="#69f0ae"/>
  <rect id="Rectangle_80" data-name="Rectangle 80" width="1.82" height="1.82" transform="translate(22.461 16.767)" fill="#69f0ae"/>
  <rect id="Rectangle_81" data-name="Rectangle 81" width="1.82" height="1.82" transform="translate(28.635 21.382)" fill="#69f0ae"/>
  <rect id="Rectangle_82" data-name="Rectangle 82" width="1.82" height="1.82" transform="translate(40.658 16.767)" fill="#69f0ae"/>
  <circle id="Ellipse_6" data-name="Ellipse 6" cx="11.149" cy="11.149" r="11.149" transform="translate(0 20.598)" fill="url(#linear-gradient)"/>
  <circle id="Ellipse_7" data-name="Ellipse 7" cx="10.848" cy="10.848" r="10.848" transform="translate(0.301 20.899)" fill="#6c63ff"/>
  <circle id="Ellipse_8" data-name="Ellipse 8" cx="8.814" cy="8.814" r="8.814" transform="translate(2.335 22.933)" fill="#fff"/>
  <circle id="Ellipse_9" data-name="Ellipse 9" cx="0.527" cy="0.527" r="0.527" transform="translate(10.622 31.22)" fill="url(#linear-gradient-4)"/>
  <line id="Line_1" data-name="Line 1" x1="2.863" y2="6.78" transform="translate(11.224 24.968)" fill="#6c63ff"/>
  <path id="Path_50" data-name="Path 50" d="M169.935,389.454l-.325-.109,2.925-6.845.325.153Z" transform="translate(-158.587 -357.642)" fill="url(#linear-gradient)"/>
  <rect id="Rectangle_83" data-name="Rectangle 83" width="7.359" height="0.226" transform="matrix(0.389, -0.921, 0.921, 0.389, 11.119, 31.701)" fill="#2196f3"/>
  <line id="Line_2" data-name="Line 2" x2="1.883" y2="3.465" transform="translate(11.224 31.823)" fill="#6c63ff"/>
  <path id="Path_51" data-name="Path 51" d="M172.495,492.139l-1.885-3.509.26-.13,1.95,3.444Z" transform="translate(-159.522 -456.753)" fill="url(#linear-gradient)"/>
  <rect id="Rectangle_84" data-name="Rectangle 84" width="0.226" height="3.944" transform="translate(11.124 31.879) rotate(-28.52)" fill="#2196f3"/>
  <circle id="Ellipse_10" data-name="Ellipse 10" cx="0.226" cy="0.226" r="0.226" transform="translate(19.134 31.747)" fill="#6c63ff"/>
  <circle id="Ellipse_11" data-name="Ellipse 11" cx="0.294" cy="0.294" r="0.294" transform="translate(3.675 27.794) rotate(-60)" fill="url(#linear-gradient-7)"/>
  <circle id="Ellipse_12" data-name="Ellipse 12" cx="0.294" cy="0.294" r="0.294" transform="translate(3.75 35.941) rotate(-30)" fill="url(#linear-gradient-8)"/>
  <circle id="Ellipse_13" data-name="Ellipse 13" cx="0.294" cy="0.294" r="0.294" transform="translate(2.644 31.68)" fill="url(#linear-gradient-9)"/>
  <circle id="Ellipse_14" data-name="Ellipse 14" cx="0.294" cy="0.294" r="0.294" transform="translate(6.672 24.566) rotate(-30)" fill="url(#linear-gradient-10)"/>
  <circle id="Ellipse_15" data-name="Ellipse 15" cx="0.294" cy="0.294" r="0.294" transform="translate(10.74 23.512) rotate(-30)" fill="url(#linear-gradient-11)"/>
  <circle id="Ellipse_16" data-name="Ellipse 16" cx="0.294" cy="0.294" r="0.294" transform="translate(14.808 24.566) rotate(-30)" fill="url(#linear-gradient-12)"/>
  <circle id="Ellipse_17" data-name="Ellipse 17" cx="0.294" cy="0.294" r="0.294" transform="translate(17.822 27.58) rotate(-30)" fill="url(#linear-gradient-13)"/>
  <circle id="Ellipse_18" data-name="Ellipse 18" cx="0.294" cy="0.294" r="0.294" transform="translate(17.747 35.942) rotate(-30)" fill="url(#linear-gradient-14)"/>
  <circle id="Ellipse_19" data-name="Ellipse 19" cx="0.294" cy="0.294" r="0.294" transform="translate(14.658 38.879) rotate(-30)" fill="url(#linear-gradient-15)"/>
  <circle id="Ellipse_20" data-name="Ellipse 20" cx="0.294" cy="0.294" r="0.294" transform="translate(10.74 39.784) rotate(-30)" fill="url(#linear-gradient-16)"/>
  <circle id="Ellipse_21" data-name="Ellipse 21" cx="0.294" cy="0.294" r="0.294" transform="translate(6.823 38.88) rotate(-30)" fill="url(#linear-gradient-17)"/>
  <circle id="Ellipse_22" data-name="Ellipse 22" cx="0.226" cy="0.226" r="0.226" transform="translate(10.923 23.385)" fill="#69f0ae"/>
  <circle id="Ellipse_23" data-name="Ellipse 23" cx="0.226" cy="0.226" r="0.226" transform="translate(14.908 24.784) rotate(-60)" fill="#69f0ae"/>
  <circle id="Ellipse_24" data-name="Ellipse 24" cx="0.226" cy="0.226" r="0.226" transform="translate(17.886 27.597) rotate(-30)" fill="#69f0ae"/>
  <circle id="Ellipse_25" data-name="Ellipse 25" cx="0.226" cy="0.226" r="0.226" transform="translate(17.839 36.131) rotate(-60)" fill="#69f0ae"/>
  <circle id="Ellipse_26" data-name="Ellipse 26" cx="0.226" cy="0.226" r="0.226" transform="translate(14.75 38.889) rotate(-30)" fill="#69f0ae"/>
  <circle id="Ellipse_27" data-name="Ellipse 27" cx="0.226" cy="0.226" r="0.226" transform="translate(6.772 24.619) rotate(-30)" fill="#69f0ae"/>
  <circle id="Ellipse_28" data-name="Ellipse 28" cx="0.226" cy="0.226" r="0.226" transform="translate(3.795 27.762) rotate(-60)" fill="#69f0ae"/>
  <circle id="Ellipse_29" data-name="Ellipse 29" cx="0.294" cy="0.294" r="0.294" transform="translate(18.952 31.874) rotate(-30)" fill="#69f0ae"/>
  <circle id="Ellipse_30" data-name="Ellipse 30" cx="0.226" cy="0.226" r="0.226" transform="translate(3.842 35.966) rotate(-30)" fill="#69f0ae"/>
  <circle id="Ellipse_31" data-name="Ellipse 31" cx="0.226" cy="0.226" r="0.226" transform="translate(6.93 39.054) rotate(-60)" fill="#69f0ae"/>
  <circle id="Ellipse_32" data-name="Ellipse 32" cx="0.226" cy="0.226" r="0.226" transform="translate(2.712 31.747)" fill="#69f0ae"/>
  <circle id="Ellipse_33" data-name="Ellipse 33" cx="0.226" cy="0.226" r="0.226" transform="translate(10.923 39.657)" fill="#69f0ae"/>
  <path id="Path_52" data-name="Path 52" d="M218.585,481.447a8.815,8.815,0,0,1,16.461-4.385,8.815,8.815,0,1,0-15.746,7.868A8.784,8.784,0,0,1,218.585,481.447Z" transform="translate(-215.798 -448.871)" fill="#6c63ff" opacity="0.2"/>
  <circle id="Ellipse_34" data-name="Ellipse 34" cx="0.377" cy="0.377" r="0.377" transform="translate(10.772 31.37)" fill="#69f0ae"/>
</svg>
