<svg xmlns="http://www.w3.org/2000/svg" width="81.5" height="56.444" viewBox="0 0 81.5 56.444">
  <g id="Group_25" data-name="Group 25" transform="translate(0)">
    <path id="Path_144" data-name="Path 144" d="M666.005,445.265c0,5.108-3.037,6.892-6.783,6.892s-6.783-1.784-6.783-6.892,6.783-11.606,6.783-11.606S666.005,440.157,666.005,445.265Z" transform="translate(-607.733 -406.67)" fill="#6c63ff"/>
    <path id="Path_145" data-name="Path 145" d="M645.743,371.1l2.891-5.289-2.88,4.618.031-1.922,1.992-3.826L645.794,368l.056-3.457,2.134-3.046-2.125,2.5.035-6.339-.211,8.033-2.16-3.307,2.134,3.985-.2,3.861-.006-.1-2.5-3.494,2.493,3.856-.025.483,0,.007,0,.04-.513,5.152h.685l.082-.416,2.487-3.847-2.481,3.466Z" transform="translate(-594.431 -330.671)" fill="#3f3d56"/>
    <path id="Path_146" data-name="Path 146" d="M822.531,98.17c0,9.758-5.8,13.165-12.957,13.165s-12.957-3.407-12.957-13.165S809.575,76,809.575,76,822.531,88.412,822.531,98.17Z" transform="translate(-741.031 -75.999)" fill="#f2f2f2"/>
    <path id="Path_147" data-name="Path 147" d="M838.291,33.843l.133-8.166,5.522-10.1-5.5,8.822.06-3.672,3.806-7.309-3.79,6.338h0l.107-6.6L842.7,7.329l-4.059,4.781L838.712,0l-.421,16.031.035-.661-4.144-6.343,4.077,7.612-.386,7.376-.012-.2-4.777-6.675,4.762,7.366-.048.922-.009.014,0,.076-.979,18.713h1.309l.157-9.665,4.751-7.348Z" transform="translate(-770.22 0)" fill="#3f3d56"/>
    <path id="Path_148" data-name="Path 148" d="M140.944,633.274c0,2.912-18.893,13.843-40.979,13.843s-39.99-5.657-39.99-8.569,17.465.549,39.55.549S140.944,630.361,140.944,633.274Z" transform="translate(-59.976 -590.672)" fill="#3f3d56"/>
    <path id="Path_149" data-name="Path 149" d="M140.944,633.274c0,2.912-18.893,13.843-40.979,13.843s-39.99-5.657-39.99-8.569,17.465.549,39.55.549S140.944,630.361,140.944,633.274Z" transform="translate(-59.976 -590.672)" opacity="0.1"/>
    <path id="Path_150" data-name="Path 150" d="M140.944,630.049c0,2.912-18.893,10.547-40.979,10.547s-39.99-2.361-39.99-5.273,17.465-2.747,39.55-2.747S140.944,627.137,140.944,630.049Z" transform="translate(-59.976 -587.448)" fill="#3f3d56"/>
    <ellipse id="Ellipse_46" data-name="Ellipse 46" cx="16.982" cy="1.314" rx="16.982" ry="1.314" transform="translate(23.456 47.115)" opacity="0.1"/>
    <path id="Path_151" data-name="Path 151" d="M413.626,368.965s4.972.092,4.051.967-4.373,0-4.373,0Z" transform="translate(-386.642 -346.858)" fill="#a0616a"/>
    <path id="Path_152" data-name="Path 152" d="M265.664,227.769s2.007-.358,2.705,1.262,2.131,6.242,2.131,6.242,3.836,2.539,4.534,2.456,1.89.087,1.672.848-.122,1.624-.625,1.73-1.3-.9-1.918-.418-6.077-1.29-6.428-1.658-3.266-8.338-3.266-8.338S264.586,227.743,265.664,227.769Z" transform="translate(-249.038 -216.285)" fill="#6c63ff"/>
    <path id="Path_153" data-name="Path 153" d="M242.975,605.607l.23,1.933-1.933.506-1.1-.506v-1.7Z" transform="translate(-222.044 -559.908)" fill="#a0616a"/>
    <path id="Path_154" data-name="Path 154" d="M174.041,622.078l.23,1.933-1.933.506-1.1-.506v-1.7Z" transform="translate(-158.312 -575.136)" fill="#a0616a"/>
    <path id="Path_155" data-name="Path 155" d="M239.027,395.4l.875,3.176,1.289,6.445a6.346,6.346,0,0,1-.368,3.452c-.737,1.887-2.072,8.056-1.8,8.424s-3.13.644-3.084.276.506-5.432.506-5.432a40.79,40.79,0,0,1,.967-5.018c.322-.552-1.473-1.933-1.473-1.933s-.46,5.294-1.151,5.754-.6,7.6-.921,7.687-2.67.46-2.946,0,0-8.148,0-8.148,1.565-5.846,1.243-6.675a21.177,21.177,0,0,1-.138-4.373s-1.2-2.716-.552-4.143Z" transform="translate(-217.912 -370.827)" fill="#2f2e41"/>
    <path id="Path_156" data-name="Path 156" d="M278.181,139.664s-1.933,2.394-1.841,3.452-3.038-1.933-3.038-1.933,2.256-3.038,2.256-3.683S278.181,139.664,278.181,139.664Z" transform="translate(-257.204 -132.77)" fill="#a0616a"/>
    <circle id="Ellipse_47" data-name="Ellipse 47" cx="3.038" cy="3.038" r="3.038" transform="translate(17.916 1.715)" fill="#a0616a"/>
    <path id="Path_157" data-name="Path 157" d="M232.515,194.02a5.579,5.579,0,0,0-.284,1.584c.016.317.858.525,2.022.661,1.079.127,2.436.191,3.669.224,1.295.035,2.453.035,3.009.035,1.657,0,.322-1.059-.322-1.565s-.506-7.687-.46-8.608-.414-3.591-.414-4.1-1.083-1.828-1.083-1.828-.252.723-1.265-.243a5.382,5.382,0,0,0-2.348-1.243c-1.013.368-2.716,4.419-2.808,5.11-.037.28-.006,1.716.056,3.355.091,2.4.249,5.228.358,5.529A2.19,2.19,0,0,1,232.515,194.02Z" transform="translate(-219.218 -171.172)" fill="#6c63ff"/>
    <path id="Path_158" data-name="Path 158" d="M225.031,338.413l.322,1.151-1.243,1.289-.414-1.8Z" transform="translate(-206.816 -312.876)" fill="#a0616a"/>
    <path id="Path_159" data-name="Path 159" d="M293.67,690.365s.967,1.1,1.7.368.691-1.2.829-1.2,2.21,1.841,2.21,1.841,3.545.829,1.611,1.427a22.655,22.655,0,0,1-7.411,0c0-.184-.138-2.624.368-2.624Z" transform="translate(-275.041 -643.239)" fill="#2f2e41"/>
    <path id="Path_160" data-name="Path 160" d="M224.736,706.836s.967,1.1,1.7.368.69-1.2.829-1.2,2.21,1.841,2.21,1.841,3.545.829,1.611,1.427a22.658,22.658,0,0,1-7.411,0c0-.184-.138-2.624.368-2.624Z" transform="translate(-211.309 -658.467)" fill="#2f2e41"/>
    <path id="Path_161" data-name="Path 161" d="M277.848,85.944c-.1.063-.226.128-.324.064a14.688,14.688,0,0,1-.815-2.822,1.383,1.383,0,0,1,.083-1.005,2.467,2.467,0,0,0,.236-.332,2.246,2.246,0,0,0,.056-.611,1.21,1.21,0,0,1,.868-.871,11.433,11.433,0,0,0,1.236-.379,9.4,9.4,0,0,0,1-.706,1.292,1.292,0,0,1,1.158-.229c.336.136.545.478.863.653a2.518,2.518,0,0,0,.706.2,4.522,4.522,0,0,1,1.837.853,1.333,1.333,0,0,1,.334.345c.408.671-.322,1.584,0,2.3l-.7-.549a2.425,2.425,0,0,0-.622-.4.819.819,0,0,0-.713.032,1.48,1.48,0,0,0-.476.895c-.1.331-.33.7-.676.689-.471-.012-.635-.668-1.057-.876a.815.815,0,0,0-.856.151,1.756,1.756,0,0,0-.479.773,2.108,2.108,0,0,1-.24.541c-.126.173-.288.186-.423.315A6.65,6.65,0,0,1,277.848,85.944Z" transform="translate(-260.305 -78.766)" fill="#2f2e41"/>
    <path id="Path_162" data-name="Path 162" d="M233.4,230.828a21.454,21.454,0,0,0,1.738,2.245c1.079.127,2.436.191,3.669.224a2.907,2.907,0,0,0-.812-.748c-.6-.368-2.025-4.741-2.025-4.741s1.749-4.511,2.21-6.214-1.335-2.67-1.335-2.67c-.829-.691-2.256.921-2.256.921s-.728,2.2-1.417,4.368c.091,2.4.249,5.228.358,5.529A2.19,2.19,0,0,1,233.4,230.828Z" transform="translate(-220.104 -207.98)" opacity="0.1"/>
    <path id="Path_163" data-name="Path 163" d="M220.22,214.044s1.8.967,1.335,2.67-2.21,6.214-2.21,6.214,1.427,4.373,2.025,4.741,1.427,1.243.783,1.7-1.1,1.2-1.565.967-.46-1.519-1.243-1.519-3.959-4.787-4-5.294,2.624-8.562,2.624-8.562S219.391,213.354,220.22,214.044Z" transform="translate(-203.616 -203.468)" fill="#6c63ff"/>
    <path id="Path_164" data-name="Path 164" d="M454.294,370.766l-.518-.518a1.611,1.611,0,0,0-2.278,0l-10.045,10.045-10.045-10.045a1.611,1.611,0,0,0-2.278,0l-.518.518a1.611,1.611,0,0,0,0,2.278l10.045,10.045-10.045,10.045a1.611,1.611,0,0,0,0,2.278l.518.518a1.611,1.611,0,0,0,2.278,0l10.045-10.045L451.5,395.929a1.611,1.611,0,0,0,2.278,0l.518-.518a1.611,1.611,0,0,0,0-2.278l-10.045-10.045,10.045-10.045A1.611,1.611,0,0,0,454.294,370.766Z" transform="translate(-400.359 -347.608)" fill="#ff6584"/>
    <path id="Path_165" data-name="Path 165" d="M429.643,565.979l9.747-9.747-.094-.094L430,565.433A1.6,1.6,0,0,0,429.643,565.979Z" transform="translate(-401.748 -519.907)" opacity="0.1"/>
    <path id="Path_166" data-name="Path 166" d="M429.862,371.092a1.611,1.611,0,0,1,2.278,0l10.045,10.045,10.045-10.045a1.611,1.611,0,0,1,2.278,0l.518.518a1.611,1.611,0,0,1,.359,1.732l.3-.3a1.611,1.611,0,0,0,0-2.278l-.518-.518a1.611,1.611,0,0,0-2.278,0l-10.045,10.045L432.8,370.248a1.611,1.611,0,0,0-2.278,0l-.518.518a1.6,1.6,0,0,0-.358.546Z" transform="translate(-401.748 -347.608)" opacity="0.1"/>
    <path id="Path_167" data-name="Path 167" d="M633.654,547.436l-.751.751,10.045,10.045a1.611,1.611,0,0,1,.358,1.732l.3-.3a1.611,1.611,0,0,0,0-2.278Z" transform="translate(-589.67 -511.861)" opacity="0.1"/>
    <path id="Path_168" data-name="Path 168" d="M76.938,518.086c0,4.242-2.522,5.724-5.633,5.724s-5.633-1.481-5.633-5.724,5.633-9.64,5.633-9.64S76.938,513.844,76.938,518.086Z" transform="translate(-65.242 -475.815)" fill="#6c63ff"/>
    <path id="Path_169" data-name="Path 169" d="M49.947,443.612l2.4-4.393-2.392,3.836.026-1.6,1.655-3.178-1.648,2.755.047-2.871,1.772-2.53-1.765,2.079.029-5.265-.175,6.671L48.1,436.373l1.773,3.31-.168,3.207,0-.085-2.077-2.9,2.071,3.2-.021.4,0,.006,0,.033-.426,4.279h.569l.068-.346,2.065-3.195-2.06,2.879Z" transform="translate(-44.031 -399.816)" fill="#3f3d56"/>
  </g>
</svg>
