<svg xmlns="http://www.w3.org/2000/svg" width="78.887" height="83.364" viewBox="0 0 78.887 83.364">
  <g id="Group_35" data-name="Group 35" transform="translate(40.094 0.006)">
    <circle id="Ellipse_57" data-name="Ellipse 57" cx="34.62" cy="34.62" r="34.62" transform="translate(-30.447 11.704)" fill="#f2f2f2"/>
    <path id="Path_197" data-name="Path 197" d="M383.092,410.6a2.8,2.8,0,0,0,.37-1.417,1.836,1.836,0,1,0-3.542,0,2.8,2.8,0,0,0,.37,1.417,2.9,2.9,0,0,0,0,2.834,2.9,2.9,0,0,0,0,2.834,2.9,2.9,0,0,0,0,2.834,2.8,2.8,0,0,0-.37,1.417,1.836,1.836,0,1,0,3.542,0,2.8,2.8,0,0,0-.37-1.417,2.9,2.9,0,0,0,0-2.834,2.9,2.9,0,0,0,0-2.834A2.9,2.9,0,0,0,383.092,410.6Z" transform="translate(-399.136 -370.403)" fill="#3f3d56"/>
    <ellipse id="Ellipse_58" data-name="Ellipse 58" cx="1.771" cy="2.319" rx="1.771" ry="2.319" transform="translate(-19.216 33.632)" fill="#3f3d56"/>
    <ellipse id="Ellipse_59" data-name="Ellipse 59" cx="1.771" cy="2.319" rx="1.771" ry="2.319" transform="translate(-19.216 30.799)" fill="#3f3d56"/>
    <path id="Path_198" data-name="Path 198" d="M322.339,27.649a8.506,8.506,0,0,0,.66-.971l-4.654-.764,5.033.037a8.5,8.5,0,0,0,.162-6.722l-6.753,3.5,6.228-4.578A8.485,8.485,0,1,0,309,27.649a8.488,8.488,0,0,0-.968,1.547l6.041,3.139-6.441-2.162A8.489,8.489,0,0,0,309,38.14a8.484,8.484,0,1,0,13.337,0,8.485,8.485,0,0,0,0-10.491Z" transform="translate(-333.154 -13.925)" fill="#6c63ff"/>
    <path id="Path_199" data-name="Path 199" d="M307.188,217.137A8.448,8.448,0,0,0,309,222.383a8.484,8.484,0,1,0,13.337,0C323.477,220.939,307.188,216.185,307.188,217.137Z" transform="translate(-333.155 -198.168)" opacity="0.1"/>
    <path id="Path_200" data-name="Path 200" d="M260.572,532.8c-2.2,7.823-19.136,15.079-37.15,10.024s-30.281-20.508-28.086-28.331,18.022-5.055,36.036,0S262.767,524.977,260.572,532.8Z" transform="translate(-231.455 -463.607)" fill="#3f3d56"/>
    <path id="Path_201" data-name="Path 201" d="M260.572,532.8c-2.2,7.823-19.136,15.079-37.15,10.024s-30.281-20.508-28.086-28.331,18.022-5.055,36.036,0S262.767,524.977,260.572,532.8Z" transform="translate(-231.455 -463.607)" opacity="0.1"/>
    <ellipse id="Ellipse_60" data-name="Ellipse 60" cx="14.712" cy="33.878" rx="14.712" ry="33.878" transform="translate(-40.094 65.051) rotate(-74.324)" fill="#3f3d56"/>
    <ellipse id="Ellipse_61" data-name="Ellipse 61" cx="9.931" cy="2.877" rx="9.931" ry="2.877" transform="translate(-18.938 57.647)" opacity="0.1"/>
    <path id="Path_202" data-name="Path 202" d="M416.168,481.73l-12.561,12.561-5.279-5.28a1.8,1.8,0,0,0-2.552,0l-.19-.284a2.177,2.177,0,0,0,.19,2.836l6.85,6.85a1.377,1.377,0,0,0,1.947,0l14.147-14.132a2.01,2.01,0,0,0,.256-2.7h0A2.135,2.135,0,0,0,416.168,481.73Z" transform="translate(-412.945 -437.763)" fill="#57b894"/>
    <path id="Path_203" data-name="Path 203" d="M416.168,481.73l-12.561,12.561-5.279-5.28a1.8,1.8,0,0,0-2.552,0l-.19-.284a2.177,2.177,0,0,0,.19,2.836l6.85,6.85a1.377,1.377,0,0,0,1.947,0l14.147-14.132a2.01,2.01,0,0,0,.256-2.7h0A2.135,2.135,0,0,0,416.168,481.73Z" transform="translate(-412.945 -437.763)" opacity="0.1"/>
    <path id="Path_204" data-name="Path 204" d="M417.187,476.515l-12.561,12.561-5.279-5.279a1.8,1.8,0,0,0-2.552,0h0a1.8,1.8,0,0,0,0,2.552l6.85,6.85a1.377,1.377,0,0,0,1.947,0l14.147-14.132a1.8,1.8,0,0,0,0-2.552h0A1.8,1.8,0,0,0,417.187,476.515Z" transform="translate(-413.965 -433.105)" fill="#57b894"/>
    <path id="Path_205" data-name="Path 205" d="M643.671,712.05a4.075,4.075,0,0,0-1.685,1.011,3.7,3.7,0,0,1-1.629.337c-.618-.112-1.741,1.011-.842,1.348s6.4,1.236,6.515.955.112-3.145.112-3.145Z" transform="translate(-634.332 -647.258)" fill="#575a89"/>
    <path id="Path_206" data-name="Path 206" d="M743.158,706.854a4.075,4.075,0,0,0-1.488,1.284,3.7,3.7,0,0,1-1.547.61c-.628-.005-1.543,1.294-.6,1.472s6.52.124,6.583-.172-.427-3.118-.427-3.118Z" transform="translate(-724.995 -642.544)" fill="#575a89"/>
    <circle id="Ellipse_62" data-name="Ellipse 62" cx="2.528" cy="2.528" r="2.528" transform="translate(8.637 21.178)" fill="#ffb9b9"/>
    <path id="Path_207" data-name="Path 207" d="M703.727,273.926s.281,1.91.786,2.134a3.732,3.732,0,0,1,.955.674l-1.4.674-2.752-.168a3.276,3.276,0,0,0-.169-1.853C700.75,274.769,703.727,273.926,703.727,273.926Z" transform="translate(-690.512 -249.799)" fill="#ffb9b9"/>
    <path id="Path_208" data-name="Path 208" d="M763.649,371.354a9.782,9.782,0,0,1,0,6.515c-1.292,3.2-1.854,3.707-1.854,3.707l-.393-4.213.452-.41a5.332,5.332,0,0,0,.051-2.035,12.583,12.583,0,0,1,.114-3.116Z" transform="translate(-745.211 -338.184)" fill="#ffb9b9"/>
    <path id="Path_209" data-name="Path 209" d="M667.13,428.5s-1.629,3.707-1.46,5.5,1.46,9.38,1.46,9.38-.168,9.773.337,9.773,2.921.9,2.921.281.505-15.446.505-15.446,2.865,6.515,3.145,7.021,2.078,8.425,2.7,8.425,2.528-.562,2.359-.955-2.078-9.155-3.145-11.4-.843-10.728-.843-10.728l-1.8-3.932Z" transform="translate(-658.353 -388.141)" fill="#2f2e41"/>
    <path id="Path_210" data-name="Path 210" d="M680.108,231.26s-1.573-.112-1.685-.506-.337-.73-.225-.73.169-.281.169-.281.112-.056.169,0,.112-.393.112-.393.056-.168.112-.056.056.056.112-.112.337-.281.337-.281,1.067.056,1.236-.168a4.312,4.312,0,0,1,2.471.225c.393.281,2.134,1.292,1.854,2.134s-1.292,2.7-1.292,2.977-.393.225-.506-.056-1.011-.618-1.011-.786-.506-1.741-.786-1.629-.618,1.011-.73.843A8.03,8.03,0,0,1,680.108,231.26Z" transform="translate(-669.701 -208.706)" fill="#3f3d56"/>
    <path id="Path_211" data-name="Path 211" d="M684.256,299.263s-2.3-3.37-2.977-3.539-2.191-.618-2.191-.618a11.052,11.052,0,0,0-1.966.449c-.449.225-2.134.618-2.191,1.292s.449,7.133.169,7.751-1.236,6.515-.786,6.4.112-1.573,2.078-1.629,3.033-1.236,3.763.168a7.572,7.572,0,0,0,2.808,2.471,13.585,13.585,0,0,1,.225-1.348,8.131,8.131,0,0,0-.449-2.7,41.537,41.537,0,0,1,.281-4.943C683.245,302.52,684.256,299.263,684.256,299.263Z" transform="translate(-666.099 -269.013)" fill="#575a89"/>
    <path id="Path_212" data-name="Path 212" d="M764.172,338.677l.842.112a3.808,3.808,0,0,0,.169,1.46c.225.337.618,2.078.393,2.134s-2.247.393-2.247.393l-.112-2.584Z" transform="translate(-746.858 -308.54)" fill="#575a89"/>
    <path id="Path_213" data-name="Path 213" d="M636.167,360.462a31.428,31.428,0,0,1-.843,4.1c-.281.449-1.685,6.74-1.685,6.74s-2.309,3.211-1.186,3.155,2.309-2.93,2.309-2.93,3.482-6.347,3.482-7.021a40.808,40.808,0,0,1,.843-4.044Z" transform="translate(-627.951 -328.303)" fill="#ffb9b9"/>
    <path id="Path_214" data-name="Path 214" d="M672.867,307.209l-1.011.393s-1.292,4.606-1.011,5,3.651-.168,3.707-.337S673.935,307.209,672.867,307.209Z" transform="translate(-663.023 -279.993)" fill="#575a89"/>
    <path id="Path_215" data-name="Path 215" d="M206.474,434.718c0,3.914,2.455,7.081,5.49,7.081" transform="translate(-241.789 -395.667)" fill="#3f3d56"/>
    <path id="Path_216" data-name="Path 216" d="M265.624,441.022c0-3.958,2.74-7.161,6.127-7.161" transform="translate(-295.449 -394.889)" fill="#6c63ff"/>
    <path id="Path_217" data-name="Path 217" d="M227.9,438.541c0,3.718,1.566,6.727,3.5,6.727" transform="translate(-261.231 -399.135)" fill="#6c63ff"/>
    <path id="Path_218" data-name="Path 218" d="M265.624,421.58c0-5.058,3.167-9.15,7.081-9.15" transform="translate(-295.449 -375.448)" fill="#3f3d56"/>
    <path id="Path_219" data-name="Path 219" d="M253.18,507.438a2.853,2.853,0,0,0,1.013-.191c.235-.167,1.2-.367,1.256-.1s1.17,1.333.291,1.34a7.444,7.444,0,0,1-2.277-.28C253.229,508.066,253.18,507.438,253.18,507.438Z" transform="translate(-284.16 -461.256)" fill="#a8a8a8"/>
    <path id="Path_220" data-name="Path 220" d="M255.756,512.5a7.446,7.446,0,0,1-2.277-.28c-.178-.109-.249-.5-.273-.678h-.026s.049.628.284.771a7.45,7.45,0,0,0,2.277.28c.254,0,.341-.092.337-.226C256.042,512.445,255.945,512.5,255.756,512.5Z" transform="translate(-284.16 -465.357)" opacity="0.2"/>
  </g>
</svg>
