<svg xmlns="http://www.w3.org/2000/svg" width="81.723" height="96.07" viewBox="0 0 81.723 96.07">
  <g id="Group_34" data-name="Group 34" transform="translate(0)">
    <path id="Path_170" data-name="Path 170" d="M479.461,101.432l-7.821-2.364-.481,10.695,8.23,2.481Z" transform="translate(-403.25 -84.789)" fill="#f5f5f5"/>
    <path id="Path_171" data-name="Path 171" d="M146.808,0V10.882l46.749,14.091.481-10.695Z" transform="translate(-125.648)" fill="#f5f5f5"/>
    <path id="Path_172" data-name="Path 172" d="M479.461,101.432l-7.821-2.364-.481,10.695,8.23,2.481Z" transform="translate(-403.25 -84.789)" opacity="0.1"/>
    <path id="Path_173" data-name="Path 173" d="M479.461,243.552l-7.821-2.364-.481,10.695,8.23,2.481Z" transform="translate(-403.25 -206.425)" fill="#3ad29f"/>
    <path id="Path_174" data-name="Path 174" d="M146.808,142.12V153l46.749,14.091.481-10.695Z" transform="translate(-125.648 -121.636)" fill="#3ad29f"/>
    <path id="Path_175" data-name="Path 175" d="M479.461,243.552l-7.821-2.364-.481,10.695,8.23,2.481Z" transform="translate(-403.25 -206.425)" opacity="0.1"/>
    <path id="Path_176" data-name="Path 176" d="M488.291,276.144l1.28,1.92,2.561-3.2" transform="translate(-417.913 -235.247)" fill="none" stroke="#fff" stroke-linecap="round" stroke-miterlimit="10" stroke-width="7"/>
    <g id="Group_26" data-name="Group 26" transform="translate(70.45 18.493)" opacity="0.4">
      <line id="Line_3" data-name="Line 3" x2="2.56" y2="4.481" fill="none" stroke="#fff" stroke-linecap="round" stroke-miterlimit="10" stroke-width="7"/>
      <line id="Line_4" data-name="Line 4" x1="3.201" y2="3.201" transform="translate(0 0.64)" fill="none" stroke="#fff" stroke-linecap="round" stroke-miterlimit="10" stroke-width="7"/>
    </g>
    <path id="Path_177" data-name="Path 177" d="M479.461,376.79l-7.821-2.364-.481,10.695,8.23,2.481Z" transform="translate(-403.25 -320.459)" fill="#f5f5f5"/>
    <path id="Path_178" data-name="Path 178" d="M146.808,275.358V286.24l46.749,14.091.481-10.695Z" transform="translate(-125.648 -235.67)" fill="#f5f5f5"/>
    <path id="Path_179" data-name="Path 179" d="M479.461,376.79l-7.821-2.364-.481,10.695,8.23,2.481Z" transform="translate(-403.25 -320.459)" opacity="0.1"/>
    <g id="Group_27" data-name="Group 27" transform="translate(70.45 58.18)" opacity="0.4">
      <line id="Line_5" data-name="Line 5" x2="2.56" y2="4.481" fill="none" stroke="#fff" stroke-linecap="round" stroke-miterlimit="10" stroke-width="7"/>
      <line id="Line_6" data-name="Line 6" x1="3.201" y2="3.201" transform="translate(0 0.64)" fill="none" stroke="#fff" stroke-linecap="round" stroke-miterlimit="10" stroke-width="7"/>
    </g>
    <ellipse id="Ellipse_48" data-name="Ellipse 48" cx="1.6" cy="3.201" rx="1.6" ry="3.201" transform="translate(51.886 31.935)" opacity="0.3"/>
    <ellipse id="Ellipse_49" data-name="Ellipse 49" cx="13.443" cy="26.885" rx="13.443" ry="26.885" transform="translate(40.044 8.25)" fill="#6c63ff" opacity="0.1"/>
    <ellipse id="Ellipse_50" data-name="Ellipse 50" cx="7.361" cy="14.723" rx="7.361" ry="14.723" transform="translate(46.125 20.413)" fill="#fff" opacity="0.1"/>
    <g id="Group_28" data-name="Group 28" transform="translate(0 15.896)" opacity="0.5">
      <rect id="Rectangle_113" data-name="Rectangle 113" width="0.213" height="1.209" transform="translate(0.498)" fill="#47e6b1"/>
      <rect id="Rectangle_114" data-name="Rectangle 114" width="0.213" height="1.209" transform="translate(1.209 0.498) rotate(90)" fill="#47e6b1"/>
    </g>
    <g id="Group_29" data-name="Group 29" transform="translate(75.669 74.846)" opacity="0.5">
      <rect id="Rectangle_115" data-name="Rectangle 115" width="0.213" height="1.209" transform="translate(0.498)" fill="#47e6b1"/>
      <rect id="Rectangle_116" data-name="Rectangle 116" width="0.213" height="1.209" transform="translate(1.209 0.498) rotate(90)" fill="#47e6b1"/>
    </g>
    <g id="Group_30" data-name="Group 30" transform="translate(70.414 49.183)" opacity="0.5">
      <rect id="Rectangle_117" data-name="Rectangle 117" width="0.213" height="1.209" transform="translate(0.498)" fill="#47e6b1"/>
      <rect id="Rectangle_118" data-name="Rectangle 118" width="0.213" height="1.209" transform="translate(1.209 0.498) rotate(90)" fill="#47e6b1"/>
    </g>
    <g id="Group_31" data-name="Group 31" transform="translate(61.31 73.792)" opacity="0.5">
      <rect id="Rectangle_119" data-name="Rectangle 119" width="0.213" height="1.209" transform="translate(0.498)" fill="#47e6b1"/>
      <rect id="Rectangle_120" data-name="Rectangle 120" width="0.213" height="1.209" transform="translate(1.209 0.498) rotate(90)" fill="#47e6b1"/>
    </g>
    <g id="Group_32" data-name="Group 32" transform="translate(54.909 89.226)" opacity="0.5">
      <rect id="Rectangle_121" data-name="Rectangle 121" width="0.213" height="1.209" transform="translate(0.498)" fill="#47e6b1"/>
      <rect id="Rectangle_122" data-name="Rectangle 122" width="0.213" height="1.209" transform="translate(1.209 0.498) rotate(90)" fill="#47e6b1"/>
    </g>
    <g id="Group_33" data-name="Group 33" transform="translate(9.104 34.602)" opacity="0.5">
      <rect id="Rectangle_123" data-name="Rectangle 123" width="0.213" height="1.209" transform="translate(0.498)" fill="#47e6b1"/>
      <rect id="Rectangle_124" data-name="Rectangle 124" width="0.213" height="1.209" transform="translate(1.209 0.498) rotate(90)" fill="#47e6b1"/>
    </g>
    <path id="Path_180" data-name="Path 180" d="M400.971,223.309a.261.261,0,0,1-.146-.316.125.125,0,0,0,.006-.029h0a.131.131,0,0,0-.236-.087h0a.124.124,0,0,0-.014.026.261.261,0,0,1-.316.146.126.126,0,0,0-.029-.006h0a.131.131,0,0,0-.087.235h0a.126.126,0,0,0,.026.014.261.261,0,0,1,.146.316.125.125,0,0,0-.006.029h0a.131.131,0,0,0,.235.087h0a.122.122,0,0,0,.014-.026.261.261,0,0,1,.316-.146.126.126,0,0,0,.029.006h0a.131.131,0,0,0,.087-.235h0A.125.125,0,0,0,400.971,223.309Z" transform="translate(-388.048 -207.533)" fill="#4d8af0" opacity="0.5"/>
    <path id="Path_181" data-name="Path 181" d="M734.163,149.116a.261.261,0,0,1-.146-.316.127.127,0,0,0,.006-.029h0a.131.131,0,0,0-.235-.087h0a.129.129,0,0,0-.015.026.261.261,0,0,1-.316.146.127.127,0,0,0-.029-.006h0a.131.131,0,0,0-.087.235h0a.127.127,0,0,0,.026.014.261.261,0,0,1,.146.316.127.127,0,0,0-.006.029h0a.131.131,0,0,0,.235.087h0a.125.125,0,0,0,.014-.026.261.261,0,0,1,.316-.146.125.125,0,0,0,.029.006h0a.131.131,0,0,0,.087-.235h0A.128.128,0,0,0,734.163,149.116Z" transform="translate(-673.217 -144.033)" fill="#4d8af0" opacity="0.5"/>
    <path id="Path_182" data-name="Path 182" d="M324.581,413.124a.261.261,0,0,1-.146-.316.125.125,0,0,0,.006-.029h0a.131.131,0,0,0-.235-.087h0a.126.126,0,0,0-.014.026.261.261,0,0,1-.316.146.128.128,0,0,0-.029-.006h0a.131.131,0,0,0-.087.235h0a.128.128,0,0,0,.026.014.261.261,0,0,1,.146.316.127.127,0,0,0-.006.029h0a.131.131,0,0,0,.235.087h0a.126.126,0,0,0,.014-.026.261.261,0,0,1,.316-.146.124.124,0,0,0,.029.006h0a.131.131,0,0,0,.087-.235h0A.124.124,0,0,0,324.581,413.124Z" transform="translate(-322.668 -369.989)" fill="#4d8af0" opacity="0.5"/>
    <path id="Path_183" data-name="Path 183" d="M337.9,599.656a.261.261,0,0,1-.146-.316.126.126,0,0,0,.006-.029h0a.131.131,0,0,0-.235-.087h0a.128.128,0,0,0-.014.026.261.261,0,0,1-.316.146.122.122,0,0,0-.029-.006h0a.131.131,0,0,0-.087.235h0a.129.129,0,0,0,.026.015.261.261,0,0,1,.146.316.126.126,0,0,0-.006.029h0a.131.131,0,0,0,.235.087h0a.124.124,0,0,0,.015-.026.261.261,0,0,1,.316-.146.124.124,0,0,0,.029.006h0a.131.131,0,0,0,.087-.235h0A.125.125,0,0,0,337.9,599.656Z" transform="translate(-334.071 -529.636)" fill="#4d8af0" opacity="0.5"/>
    <circle id="Ellipse_51" data-name="Ellipse 51" cx="0.427" cy="0.427" r="0.427" transform="translate(35.421 18.955)" fill="#f55f44" opacity="0.5"/>
    <circle id="Ellipse_52" data-name="Ellipse 52" cx="0.427" cy="0.427" r="0.427" transform="translate(46.943 74.646)" fill="#4d8af0" opacity="0.5"/>
    <circle id="Ellipse_53" data-name="Ellipse 53" cx="0.427" cy="0.427" r="0.427" transform="translate(73.188 30.477)" fill="#4d8af0" opacity="0.5"/>
    <circle id="Ellipse_54" data-name="Ellipse 54" cx="0.427" cy="0.427" r="0.427" transform="translate(80.869 49.681)" fill="#47e6b1" opacity="0.5"/>
    <circle id="Ellipse_55" data-name="Ellipse 55" cx="0.427" cy="0.427" r="0.427" transform="translate(52.277 1.245)" fill="#f55f44" opacity="0.5"/>
    <rect id="Rectangle_125" data-name="Rectangle 125" width="3.206" height="4.122" transform="translate(34.181 24.138) rotate(-177.779)" fill="#6c63ff"/>
    <path id="Path_184" data-name="Path 184" d="M632.158,348.7s4.436-2.12,4.365-.289-4.472,3.035-4.472,3.035Z" transform="translate(-586.57 -314.38)" fill="#ffb9b9"/>
    <path id="Path_185" data-name="Path 185" d="M506.6,447.753a64.013,64.013,0,0,1,2.866,8.819c.773,3.7,1.951,8.784.436,12.392s-5.822,14.211-5.866,15.355.369,2.306-.546,2.27-5.9-1.6-6.1-2.3,1.7-2.455,1.7-2.455l4.7-14.713-4.9-9.586-3.534,14.3-.692,17.848s-3.4-1.048-3.89-.151a13.813,13.813,0,0,1-1.715-3.046c-.193-.924.719-18.534.719-18.534s-3.118-20.058-.6-19.96S501.55,442.057,506.6,447.753Z" transform="translate(-463.446 -397.945)" fill="#6c63ff"/>
    <path id="Path_186" data-name="Path 186" d="M552.466,716.037s2.322,5.132,2.542,5.369,1.733,2.588.589,2.544-3.846-1.295-5.834-3.205-4.61-5.22-4.372-5.44a13.511,13.511,0,0,1,1.866-.844Z" transform="translate(-512.387 -628.308)" fill="#575a89"/>
    <path id="Path_187" data-name="Path 187" d="M504.221,742.7a13.337,13.337,0,0,0,.562,3.23c.422.933.369,2.306-.775,2.261s-4.1-.617-4.1-.617-.176-1.382.062-1.6,1.251-2.7.82-3.406S504.221,742.7,504.221,742.7Z" transform="translate(-473.419 -652.122)" fill="#575a89"/>
    <path id="Path_188" data-name="Path 188" d="M497.122,227.981a42.691,42.691,0,0,1-3.39,4.681c-.951.88,1.724,2.817,1.724,2.817l4.787.644a33.53,33.53,0,0,1,.186-4.805C500.676,230.869,497.122,227.981,497.122,227.981Z" transform="translate(-468.012 -211.946)" fill="#ffb9b9"/>
    <path id="Path_189" data-name="Path 189" d="M491.985,256.272s-.986,1.8-1.9,1.76-5.649-2.052-5.852-2.748-1.568,4.981-1.568,4.981l11.584,20.386,2.826-1.953L495.7,266.728l-1.124-6.46Z" transform="translate(-458.714 -235.263)" fill="#6c63ff"/>
    <path id="Path_190" data-name="Path 190" d="M462.318,266.339a6.41,6.41,0,0,1,.711,3.007c0,.046,0,.092-.008.137a60.781,60.781,0,0,1-1.17,6.348c-.2,1.278-.145,2.21.6,2.43,1.813.529-.264.906,6.749,3.241s8.237.319,8.255-.138-.993-3.934-.756-4.154,3.326,2.879,4.259,2.457.107-2.746.107-2.746-2.1-4.894-2.057-6.038-3.184-6.54-3.184-6.54l-2.2-14.293s-.844-1.866-1.979-2.139a2.812,2.812,0,0,0-2.077.378l1.9,4.2,2,7.411-.335,2.737a48.8,48.8,0,0,0-3.861-6.8c-1.531-1.893-4.794-6.373-4.794-6.373s-.762-2.571-.187-3.339-2.4-.886-3.668,2.273c-.672,1.674-1.764,4.171-2.447,6.5-.609,2.059-.9,3.985-.293,5.085C458.814,261.661,461.135,263.871,462.318,266.339Z" transform="translate(-437.227 -227.085)" fill="#575a89"/>
    <path id="Path_191" data-name="Path 191" d="M457.892,311.381c.923,1.681,3.243,3.891,4.426,6.359.309-1.113.686-2.265.686-2.265s1.446-7.735-2.831-9.734a2.862,2.862,0,0,0-1.988.555C457.576,308.355,457.288,310.281,457.892,311.381Z" transform="translate(-437.227 -278.486)" opacity="0.1"/>
    <path id="Path_192" data-name="Path 192" d="M575.552,341.572l3.626,1.057,5.034.2.518,4.374-8.273.6S574.39,341.985,575.552,341.572Z" transform="translate(-537.911 -309.165)" fill="#575a89"/>
    <path id="Path_193" data-name="Path 193" d="M526.779,443.612s4.85.8,3.743,2.264-5.4-.075-5.4-.075Z" transform="translate(-495.049 -396.498)" fill="#ffb9b9"/>
    <path id="Path_194" data-name="Path 194" d="M488.51,410.885a60.761,60.761,0,0,1-1.17,6.348c1.545,1.462,3.014,2.752,3.568,2.774a19.413,19.413,0,0,1,3.661.142c.678.255,1.075-4.083,1.075-4.083a3.752,3.752,0,0,0-2.208-2.148A25.122,25.122,0,0,1,488.51,410.885Z" transform="translate(-462.717 -368.488)" opacity="0.1"/>
    <path id="Path_195" data-name="Path 195" d="M454.268,296.2s-3.872-.608-3.663,5.816-.408,10.526,1.149,11.732,6.616,6.673,7.76,6.717a19.411,19.411,0,0,1,3.661.142c.678.255,1.075-4.083,1.075-4.083a3.753,3.753,0,0,0-2.208-2.148c-1.8-.757-6.054-3.443-6.018-4.358a29.191,29.191,0,0,1,1.075-4.083S458.544,298.2,454.268,296.2Z" transform="translate(-431.269 -270.321)" fill="#575a89"/>
    <circle id="Ellipse_56" data-name="Ellipse 56" cx="5.038" cy="5.038" r="5.038" transform="translate(27.486 11.588)" fill="#ffb9b9"/>
    <path id="Path_196" data-name="Path 196" d="M511.38,175.942a.973.973,0,0,0,.424.213.3.3,0,0,0,.35-.243,1.256,1.256,0,0,0,.481.616c.235.123.6.02.633-.243a1.11,1.11,0,0,0,.256.54.383.383,0,0,0,.538.018,13.835,13.835,0,0,0-.072,1.714,2.182,2.182,0,0,1-.617,1.553,3.04,3.04,0,0,1-2.405.309.73.73,0,0,0-.377.021c-.31.132-.3.564-.3.9a2.5,2.5,0,0,1-2.193,2.378,1.255,1.255,0,0,1-.933-.228c-.235-.2-.355-.524-.625-.674-.438-.244-.97.112-1.291.5s-.637.86-1.133.931c-.657.093-1.157-.576-1.4-1.192a6.951,6.951,0,0,1,.138-5.4C504.223,174.663,508.907,174.19,511.38,175.942Z" transform="translate(-475.463 -166.536)" fill="#2f2e41"/>
  </g>
</svg>
