<svg xmlns="http://www.w3.org/2000/svg" xmlns:xlink="http://www.w3.org/1999/xlink" width="89.509" height="79.968" viewBox="0 0 89.509 79.968">
  <defs>
    <linearGradient id="linear-gradient" y1="0.5" x2="1" y2="0.5" gradientUnits="objectBoundingBox">
      <stop offset="0" stop-color="gray" stop-opacity="0.251"/>
      <stop offset="0.535" stop-color="gray" stop-opacity="0.122"/>
      <stop offset="1" stop-color="gray" stop-opacity="0.102"/>
    </linearGradient>
  </defs>
  <g id="Group_14" data-name="Group 14" transform="translate(-0.004)">
    <path id="Path_56" data-name="Path 56" d="M360.089,76.854,332,94.141s0,35.653,28.091,55.1c28.091-19.447,28.091-55.1,28.091-55.1Z" transform="translate(-315.153 -75.735)" fill="#3f3d56"/>
    <path id="Path_57" data-name="Path 57" d="M599.18,76.854l-.48.3V148.9c.159.113.319.226.48.337,28.091-19.447,28.091-55.1,28.091-55.1Z" transform="translate(-554.076 -75.735)" fill="#6c63ff" opacity="0.04"/>
    <g id="Group_9" data-name="Group 9" transform="translate(35.929 31.533)" opacity="0.7">
      <path id="Path_58" data-name="Path 58" d="M347.127,307.366l5.3,4.854,6.565-9.47,2.648,2.207-9.212,11.677-7.5-8.385Z" transform="translate(-344.921 -302.75)" fill="url(#linear-gradient)"/>
    </g>
    <path id="Path_59" data-name="Path 59" d="M362.711,306.762l4.3,3.938,6.086-8.949,2.148,1.79-8.233,10.739-6.086-6.8Z" transform="translate(-323.326 -270.322)" fill="#3ad29f"/>
    <path id="Path_60" data-name="Path 60" d="M324.584,107.969a.383.383,0,0,1-.213-.463.183.183,0,0,0,.008-.042h0a.192.192,0,0,0-.345-.127h0a.184.184,0,0,0-.021.038.383.383,0,0,1-.463.213.185.185,0,0,0-.042-.008h0a.192.192,0,0,0-.127.345h0a.184.184,0,0,0,.038.021.383.383,0,0,1,.213.463.183.183,0,0,0-.008.042h0a.192.192,0,0,0,.345.127h0a.184.184,0,0,0,.021-.038.383.383,0,0,1,.463-.213.184.184,0,0,0,.042.008h0a.192.192,0,0,0,.127-.345h0A.184.184,0,0,0,324.584,107.969Z" transform="translate(-307.365 -102.975)" fill="#4d8af0" opacity="0.5"/>
    <path id="Path_61" data-name="Path 61" d="M178.584,432.969a.383.383,0,0,1-.213-.463.184.184,0,0,0,.008-.042h0a.192.192,0,0,0-.345-.127h0a.184.184,0,0,0-.021.038.383.383,0,0,1-.463.213.185.185,0,0,0-.042-.008h0a.192.192,0,0,0-.127.345h0a.184.184,0,0,0,.038.021.383.383,0,0,1,.213.463.185.185,0,0,0-.008.042h0a.192.192,0,0,0,.345.127h0a.184.184,0,0,0,.021-.038.383.383,0,0,1,.463-.213.183.183,0,0,0,.042.008h0a.192.192,0,0,0,.127-.345h0A.186.186,0,0,0,178.584,432.969Z" transform="translate(-176.571 -394.125)" fill="#4d8af0" opacity="0.5"/>
    <circle id="Ellipse_35" data-name="Ellipse 35" cx="0.625" cy="0.625" r="0.625" transform="translate(77.328 25.83)" fill="#f55f44" opacity="0.5"/>
    <circle id="Ellipse_36" data-name="Ellipse 36" cx="0.625" cy="0.625" r="0.625" transform="translate(12.023 70.512)" fill="#f55f44" opacity="0.5"/>
    <circle id="Ellipse_37" data-name="Ellipse 37" cx="0.625" cy="0.625" r="0.625" transform="translate(87.952 49.89)" fill="#f55f44" opacity="0.5"/>
    <path id="Path_62" data-name="Path 62" d="M863.584,136.969a.383.383,0,0,1-.213-.463.186.186,0,0,0,.008-.042h0a.192.192,0,0,0-.345-.127h0a.183.183,0,0,0-.021.038.383.383,0,0,1-.463.213.184.184,0,0,0-.042-.008h0a.192.192,0,0,0-.127.345h0a.186.186,0,0,0,.038.021.383.383,0,0,1,.213.463.183.183,0,0,0-.008.042h0a.192.192,0,0,0,.345.127h0a.186.186,0,0,0,.021-.038.383.383,0,0,1,.463-.213.183.183,0,0,0,.042.008h0a.192.192,0,0,0,.127-.345h0A.184.184,0,0,0,863.584,136.969Z" transform="translate(-790.226 -128.954)" fill="#4d8af0" opacity="0.5"/>
    <path id="Path_63" data-name="Path 63" d="M963.585,764.969a.383.383,0,0,1-.213-.463.187.187,0,0,0,.008-.042h0a.192.192,0,0,0-.345-.127h0a.182.182,0,0,0-.021.038.383.383,0,0,1-.463.213.183.183,0,0,0-.042-.008h0a.192.192,0,0,0-.127.345h0a.184.184,0,0,0,.038.021.383.383,0,0,1,.213.463.179.179,0,0,0-.008.042h0a.192.192,0,0,0,.345.127h0a.185.185,0,0,0,.021-.038.383.383,0,0,1,.463-.213.183.183,0,0,0,.042.008h0a.192.192,0,0,0,.127-.345h0A.183.183,0,0,0,963.585,764.969Z" transform="translate(-879.811 -691.545)" fill="#4d8af0" opacity="0.5"/>
    <path id="Path_64" data-name="Path 64" d="M171.584,242.969a.383.383,0,0,1-.213-.463.183.183,0,0,0,.008-.042h0a.192.192,0,0,0-.345-.127h0a.183.183,0,0,0-.021.038.383.383,0,0,1-.463.213.184.184,0,0,0-.042-.008h0a.192.192,0,0,0-.127.345h0a.183.183,0,0,0,.038.021.383.383,0,0,1,.213.463.184.184,0,0,0-.008.042h0a.192.192,0,0,0,.345.127h0a.184.184,0,0,0,.021-.038.383.383,0,0,1,.463-.213.185.185,0,0,0,.042.008h0a.192.192,0,0,0,.127-.345h0A.184.184,0,0,0,171.584,242.969Z" transform="translate(-170.3 -223.914)" fill="#4d8af0" opacity="0.5"/>
    <circle id="Ellipse_38" data-name="Ellipse 38" cx="0.625" cy="0.625" r="0.625" transform="translate(7.649 28.955)" fill="#47e6b1" opacity="0.5"/>
    <circle id="Ellipse_39" data-name="Ellipse 39" cx="0.625" cy="0.625" r="0.625" transform="translate(88.264 33.954)" fill="#47e6b1" opacity="0.5"/>
    <g id="Group_10" data-name="Group 10" transform="translate(60.038)" opacity="0.5">
      <rect id="Rectangle_95" data-name="Rectangle 95" width="0.312" height="1.771" transform="translate(0.729)" fill="#47e6b1"/>
      <rect id="Rectangle_96" data-name="Rectangle 96" width="0.312" height="1.771" transform="translate(1.771 0.729) rotate(90)" fill="#47e6b1"/>
    </g>
    <g id="Group_11" data-name="Group 11" transform="translate(61.184 69.367)" opacity="0.5">
      <rect id="Rectangle_97" data-name="Rectangle 97" width="0.312" height="1.771" transform="translate(0.729)" fill="#47e6b1"/>
      <rect id="Rectangle_98" data-name="Rectangle 98" width="0.312" height="1.771" transform="translate(1.771 0.729) rotate(90)" fill="#47e6b1"/>
    </g>
    <g id="Group_12" data-name="Group 12" transform="translate(2.024 73.116)" opacity="0.5">
      <rect id="Rectangle_99" data-name="Rectangle 99" width="0.312" height="1.771" transform="translate(0.729)" fill="#47e6b1"/>
      <rect id="Rectangle_100" data-name="Rectangle 100" width="0.312" height="1.771" transform="translate(1.771 0.729) rotate(90)" fill="#47e6b1"/>
    </g>
    <g id="Group_13" data-name="Group 13" transform="translate(73.162 41.245)" opacity="0.5">
      <rect id="Rectangle_101" data-name="Rectangle 101" width="0.312" height="1.771" transform="translate(0.729)" fill="#47e6b1"/>
      <rect id="Rectangle_102" data-name="Rectangle 102" width="0.312" height="1.771" transform="translate(1.771 0.729) rotate(90)" fill="#47e6b1"/>
    </g>
    <path id="Path_65" data-name="Path 65" d="M793.2,116.283l.671.615.951-1.4.336.28-1.286,1.678-.951-1.063Z" transform="translate(-710.331 -103.47)" fill="#47e6b1" opacity="0.5"/>
    <rect id="Rectangle_103" data-name="Rectangle 103" width="2.317" height="2.979" transform="translate(61.397 25.011) rotate(-2.221)" fill="#6c63ff"/>
    <path id="Path_66" data-name="Path 66" d="M654.573,399.033s-3.206-1.532-3.154-.209,3.231,2.193,3.231,2.193Z" transform="translate(-601.303 -363.688)" fill="#ffb9b9"/>
    <path id="Path_67" data-name="Path 67" d="M673.51,497.692a46.256,46.256,0,0,0-2.071,6.373c-.559,2.671-1.41,6.347-.315,8.954s4.207,10.27,4.239,11.1-.267,1.666.395,1.641,4.261-1.159,4.407-1.661-1.228-1.774-1.228-1.774l-3.393-10.632,3.54-6.927,2.554,10.334.5,12.9s2.455-.758,2.811-.109a9.981,9.981,0,0,0,1.239-2.2c.14-.668-.519-13.393-.519-13.393s2.253-14.494.434-14.424S677.159,493.577,673.51,497.692Z" transform="translate(-618.481 -451.155)" fill="#6c63ff"/>
    <path id="Path_68" data-name="Path 68" d="M697.84,766.218s-1.678,3.708-1.837,3.88-1.252,1.87-.425,1.838a8.568,8.568,0,0,0,4.216-2.316c1.437-1.38,3.331-3.772,3.16-3.931a9.759,9.759,0,0,0-1.348-.61Z" transform="translate(-640.59 -692.278)" fill="#575a89"/>
    <path id="Path_69" data-name="Path 69" d="M779.291,793.2a9.637,9.637,0,0,1-.406,2.334c-.305.674-.267,1.666.56,1.634s2.963-.446,2.963-.446.127-1-.045-1.157-.9-1.952-.592-2.461S779.291,793.2,779.291,793.2Z" transform="translate(-715.337 -717.206)" fill="#575a89"/>
    <path id="Path_70" data-name="Path 70" d="M775.4,278.6a30.847,30.847,0,0,0,2.45,3.383c.687.636-1.246,2.035-1.246,2.035l-3.46.465a24.233,24.233,0,0,0-.135-3.472C772.83,280.688,775.4,278.6,775.4,278.6Z" transform="translate(-710.222 -256.469)" fill="#ffb9b9"/>
    <path id="Path_71" data-name="Path 71" d="M735.537,306.6s.713,1.3,1.374,1.271,4.082-1.483,4.229-1.986,1.133,3.6,1.133,3.6L733.9,324.217l-2.042-1.411.989-8.649.813-4.668Z" transform="translate(-673.367 -280.874)" fill="#6c63ff"/>
    <path id="Path_72" data-name="Path 72" d="M705.284,311.225a4.632,4.632,0,0,0-.514,2.173c0,.033,0,.066.005.1a43.912,43.912,0,0,0,.845,4.587c.147.923.1,1.6-.435,1.756-1.31.382.191.655-4.877,2.342s-5.953.231-5.965-.1.718-2.843.546-3-2.4,2.08-3.078,1.775-.077-1.984-.077-1.984,1.519-3.536,1.487-4.363,2.3-4.726,2.3-4.726l1.587-10.329s.61-1.348,1.43-1.546a2.032,2.032,0,0,1,1.5.273l-1.373,3.034-1.448,5.355.242,1.978a35.26,35.26,0,0,1,2.79-4.911c1.106-1.368,3.465-4.605,3.465-4.605s.551-1.858.135-2.413,1.734-.64,2.65,1.643c.486,1.21,1.274,3.014,1.768,4.694.44,1.488.648,2.879.212,3.675C707.815,307.845,706.139,309.442,705.284,311.225Z" transform="translate(-637.202 -272.315)" fill="#575a89"/>
    <path id="Path_73" data-name="Path 73" d="M821.394,360.432c-.667,1.215-2.344,2.812-3.2,4.6-.223-.8-.5-1.637-.5-1.637s-1.045-5.59,2.046-7.034a2.068,2.068,0,0,1,1.436.4C821.622,358.245,821.83,359.637,821.394,360.432Z" transform="translate(-750.114 -326.117)" opacity="0.1"/>
    <path id="Path_74" data-name="Path 74" d="M679.8,392.191l-2.62.764-3.638.141-.374,3.161,5.978.431S680.641,392.49,679.8,392.191Z" transform="translate(-620.79 -358.228)" fill="#575a89"/>
    <path id="Path_75" data-name="Path 75" d="M753.574,494.231s-3.505.581-2.705,1.636,3.9-.054,3.9-.054Z" transform="translate(-690.29 -449.64)" fill="#ffb9b9"/>
    <path id="Path_76" data-name="Path 76" d="M774.7,461.5a43.913,43.913,0,0,0,.845,4.587,8.669,8.669,0,0,1-2.578,2,14.026,14.026,0,0,0-2.646.1c-.49.185-.777-2.951-.777-2.951a2.711,2.711,0,0,1,1.6-1.552A18.157,18.157,0,0,0,774.7,461.5Z" transform="translate(-707.127 -420.322)" opacity="0.1"/>
    <path id="Path_77" data-name="Path 77" d="M776.388,346.817s2.8-.44,2.647,4.2.295,7.606-.83,8.478-4.781,4.822-5.608,4.854a14.026,14.026,0,0,0-2.646.1c-.49.185-.777-2.951-.777-2.951a2.711,2.711,0,0,1,1.6-1.552c1.3-.547,4.375-2.488,4.349-3.149a21.093,21.093,0,0,0-.777-2.951S773.3,348.262,776.388,346.817Z" transform="translate(-706.795 -317.57)" fill="#575a89"/>
    <circle id="Ellipse_40" data-name="Ellipse 40" cx="3.64" cy="3.64" r="3.64" transform="translate(59.069 18.918)" fill="#ffb9b9"/>
    <path id="Path_78" data-name="Path 78" d="M732.144,226.278a.7.7,0,0,1-.306.154.218.218,0,0,1-.253-.175.907.907,0,0,1-.347.445c-.17.089-.433.014-.458-.176a.8.8,0,0,1-.185.39.277.277,0,0,1-.389.013,10.008,10.008,0,0,1,.052,1.239,1.577,1.577,0,0,0,.446,1.123,2.2,2.2,0,0,0,1.738.223.528.528,0,0,1,.272.015c.224.1.214.408.217.651a1.809,1.809,0,0,0,1.584,1.718.907.907,0,0,0,.674-.165c.17-.144.257-.379.452-.487.317-.176.7.081.933.359s.46.622.819.673c.475.067.836-.416,1.013-.862a5.023,5.023,0,0,0-.1-3.9C737.316,225.354,733.931,225.012,732.144,226.278Z" transform="translate(-671.886 -208.937)" fill="#2f2e41"/>
  </g>
</svg>
