<svg id="Group_2" data-name="Group 2" xmlns="http://www.w3.org/2000/svg" width="49.033" height="43.09" viewBox="0 0 49.033 43.09">
  <path id="Path_24" data-name="Path 24" d="M372.769,552.861c-.086.12-.172.239-.258.357a1.47,1.47,0,0,1-.837.26H325.613a1.478,1.478,0,0,1-.8-.238l-.238-.316.08-.044,23.318-12.925a1.4,1.4,0,0,1,1.352,0l23.371,12.865Z" transform="translate(-324.127 -510.387)" fill="#6c63ff"/>
  <path id="Path_25" data-name="Path 25" d="M367.047,248.81l-20.209-11.671a5.6,5.6,0,0,0-5.592,0l-20.26,11.674A1.488,1.488,0,0,0,319.5,250.3v24.822a1.488,1.488,0,0,0,1.486,1.486h46.061a1.488,1.488,0,0,0,1.486-1.486V250.3A1.488,1.488,0,0,0,367.047,248.81Zm1.311,26.308a1.314,1.314,0,0,1-1.311,1.311H320.986a1.313,1.313,0,0,1-1.311-1.311V250.3a1.313,1.313,0,0,1,1.311-1.311l20.26-11.674a5.6,5.6,0,0,1,5.592,0l20.209,11.671a1.313,1.313,0,0,1,1.311,1.311Z" transform="translate(-319.5 -233.514)" fill="#3f3d56"/>
  <path id="Path_26" data-name="Path 26" d="M425.264,233.3a1.342,1.342,0,0,1-.447-.075l-.026-.009-.005-.059-.05.023-.018.008-.018-.008c-.037-.016-.073-.035-.109-.054L408.5,224.079V205.617A1.619,1.619,0,0,1,410.117,204h30.241a1.619,1.619,0,0,1,1.617,1.617V224.1l-.022.013-16.017,9.006a1.377,1.377,0,0,1-.673.174Z" transform="translate(-400.721 -203.956)" fill="#fff"/>
  <path id="Path_27" data-name="Path 27" d="M424.808,232.883a1.386,1.386,0,0,1-.462-.078l-.053-.019,0-.025-.029.013-.035-.015c-.038-.017-.076-.036-.113-.056L408,223.649V205.161a1.663,1.663,0,0,1,1.661-1.661H439.9a1.663,1.663,0,0,1,1.661,1.661v18.511L425.5,232.7A1.421,1.421,0,0,1,424.808,232.883Zm-.351-.225a1.267,1.267,0,0,0,.959-.107l15.972-8.981V205.161a1.488,1.488,0,0,0-1.486-1.486H409.661a1.488,1.488,0,0,0-1.486,1.486v18.385l1.048.589,14.976,8.416.062.032.062-.032.118-.066Z" transform="translate(-400.265 -203.5)" fill="#3f3d56"/>
  <path id="Path_28" data-name="Path 28" d="M371.862,384.02l-6.343,3.566-1.092.614-16.017,9.006a1.332,1.332,0,0,1-.651.169,1.3,1.3,0,0,1-.433-.073,1.051,1.051,0,0,1-.114-.044q-.054-.024-.1-.052l-14.976-8.416-1.093-.614-7.422-4.171a.088.088,0,0,1-.033-.12.087.087,0,0,1,.119-.033l7.337,4.123,1.093.614,15.062,8.464a1.144,1.144,0,0,0,.156.073c.023.009.046.017.07.024a1.159,1.159,0,0,0,.905-.1l16.1-9.053,1.092-.614,6.257-3.518a.087.087,0,1,1,.086.152Z" transform="translate(-323.216 -368.079)" fill="#3f3d56"/>
  <path id="Path_29" data-name="Path 29" d="M450.722,254.9h-2.447a.7.7,0,1,1,0-1.4h2.447a.7.7,0,1,1,0,1.4Z" transform="translate(-436.381 -249.13)" fill="#6c63ff"/>
  <path id="Path_30" data-name="Path 30" d="M453.606,281.9h-5.332a.7.7,0,1,1,0-1.4h5.332a.7.7,0,0,1,0,1.4Z" transform="translate(-436.381 -273.77)" fill="#e6e6e6"/>
  <path id="Path_31" data-name="Path 31" d="M521.82,353.9H506.7a.7.7,0,1,1,0-1.4H521.82a.7.7,0,1,1,0,1.4Z" transform="translate(-489.699 -339.477)" fill="#6c63ff"/>
  <path id="Path_32" data-name="Path 32" d="M507.7,384.9h-18a.7.7,0,1,1,0-1.4h18a.7.7,0,1,1,0,1.4Z" transform="translate(-474.185 -367.768)" fill="#e6e6e6"/>
  <path id="Path_33" data-name="Path 33" d="M507.7,414.9h-18a.7.7,0,0,1,0-1.4h18a.7.7,0,0,1,0,1.4Z" transform="translate(-474.185 -395.145)" fill="#e6e6e6"/>
</svg>
