<svg xmlns="http://www.w3.org/2000/svg" width="97" height="89.263" viewBox="0 0 97 89.263">
  <g id="Group_16" data-name="Group 16" transform="translate(-0.087 0)">
    <path id="Path_112" data-name="Path 112" d="M451.13,308.265H406.88a3.967,3.967,0,0,1-3.963-3.964V287.292c-.092.1-.187.208-.286.308v16.7a4.254,4.254,0,0,0,4.249,4.251h44.375C451.212,308.457,451.17,308.361,451.13,308.265Zm-48.213-62.871a3.967,3.967,0,0,1,3.963-3.964h14.744c-.027-.1-.053-.19-.077-.286H406.88a4.254,4.254,0,0,0-4.249,4.251V271.47c.1.1.193.2.286.308Zm59.416,3.343-9.245-7.323a1.25,1.25,0,0,0-.776-.27h-8.228c-.023.1-.049.192-.076.286h8.3a.973.973,0,0,1,.6.208l9.245,7.325a.736.736,0,0,1,.28.581v42.624c.1,0,.192.01.286.017V249.543A1.021,1.021,0,0,0,462.333,248.738Z" transform="translate(-382.297 -226.403)" fill="#3f3d56"/>
    <path id="Path_113" data-name="Path 113" d="M761.978,250.794h-7.46a2.053,2.053,0,0,1-2.053-2.053v-5.51a.128.128,0,0,1,.208-.1l9.385,7.435a.128.128,0,0,1-.08.229Z" transform="translate(-682.064 -228.081)" fill="#e6e6e6"/>
    <path id="Path_114" data-name="Path 114" d="M761.121,250.08h-7.46a2.2,2.2,0,0,1-2.2-2.2v-5.51a.272.272,0,0,1,.44-.213l9.385,7.435a.271.271,0,0,1-.169.484Zm0-.286Zm-9.37-7.39v5.479a1.913,1.913,0,0,0,1.91,1.91h7.417Z" transform="translate(-681.207 -227.224)" fill="#3f3d56"/>
    <path id="Path_115" data-name="Path 115" d="M577.921,350.91H555.975a1.027,1.027,0,0,1,0-2.053h21.946a1.027,1.027,0,0,1,0,2.053Z" transform="translate(-512.815 -318.701)" fill="#ccc"/>
    <path id="Path_116" data-name="Path 116" d="M582.156,375.123H555.975a1.027,1.027,0,0,1,0-2.053h26.181a1.027,1.027,0,1,1,0,2.053Z" transform="translate(-512.815 -339.449)" fill="#ccc"/>
    <path id="Path_117" data-name="Path 117" d="M577.921,459.417H555.975a1.027,1.027,0,0,1,0-2.053h21.946a1.027,1.027,0,0,1,0,2.053Z" transform="translate(-512.815 -411.679)" fill="#ccc"/>
    <path id="Path_118" data-name="Path 118" d="M582.156,483.629H555.975a1.027,1.027,0,0,1,0-2.053h26.181a1.027,1.027,0,1,1,0,2.053Z" transform="translate(-512.815 -432.426)" fill="#ccc"/>
    <path id="Path_119" data-name="Path 119" d="M577.921,567.924H555.975a1.027,1.027,0,0,1,0-2.053h21.946a1.027,1.027,0,1,1,0,2.053Z" transform="translate(-512.815 -504.657)" fill="#ccc"/>
    <path id="Path_120" data-name="Path 120" d="M582.156,592.136H555.975a1.027,1.027,0,0,1,0-2.053h26.181a1.027,1.027,0,1,1,0,2.053Z" transform="translate(-512.815 -525.404)" fill="#ccc"/>
    <circle id="Ellipse_44" data-name="Ellipse 44" cx="3.629" cy="3.629" r="3.629" transform="translate(30.392 29.287)" fill="#6c63ff"/>
    <path id="Path_395" data-name="Path 395" d="M488.378,361.285a.377.377,0,0,1-.226-.075l0,0-.853-.652a.379.379,0,1,1,.461-.6l.552.424,1.305-1.7a.379.379,0,0,1,.531-.07h0l-.008.011.008-.011a.379.379,0,0,1,.07.531l-1.535,2a.379.379,0,0,1-.3.148Z" transform="translate(-454.717 -326.985)" fill="#fff"/>
    <circle id="Ellipse_44-2" data-name="Ellipse 44" cx="3.629" cy="3.629" r="3.629" transform="translate(30.392 44.816)" fill="#e6e6e6"/>
    <path id="Path_395-2" data-name="Path 395" d="M488.378,469.792a.377.377,0,0,1-.226-.075l0,0-.853-.652a.379.379,0,1,1,.461-.6l.552.424,1.305-1.7a.379.379,0,0,1,.531-.07h0l-.008.011.008-.011a.379.379,0,0,1,.07.531l-1.535,2a.379.379,0,0,1-.3.148Z" transform="translate(-454.717 -419.963)" fill="#fff"/>
    <circle id="Ellipse_44-3" data-name="Ellipse 44" cx="3.629" cy="3.629" r="3.629" transform="translate(30.392 60.345)" fill="#e6e6e6"/>
    <path id="Path_395-3" data-name="Path 395" d="M488.378,578.3a.377.377,0,0,1-.226-.075l0,0-.853-.652a.379.379,0,1,1,.461-.6l.552.424,1.305-1.7a.379.379,0,0,1,.531-.07h0l-.008.011.008-.011a.379.379,0,0,1,.07.531l-1.535,2a.379.379,0,0,1-.3.148Z" transform="translate(-454.717 -512.94)" fill="#fff"/>
    <path id="Path_121" data-name="Path 121" d="M786.47,734.167q-.307.16-.625.3-.289.131-.588.246l-.221.083a11.829,11.829,0,0,1-1.8.5q-.454.089-.919.14-.384.043-.777.062c-.186.009-.373.013-.56.013a11.867,11.867,0,0,1-2.214-.207c-.19-.034-.376-.075-.563-.12a11.728,11.728,0,0,1-2.6-.959c-.074-.037-.148-.077-.222-.115-.11-.058-.217-.119-.324-.182.052-.071.107-.141.164-.21a7.006,7.006,0,0,1,10.419-.542,7.166,7.166,0,0,1,.669.774C786.369,734.02,786.42,734.093,786.47,734.167Z" transform="translate(-701.429 -646.247)" fill="#6c63ff"/>
    <circle id="Ellipse_42" data-name="Ellipse 42" cx="5.801" cy="5.801" r="5.801" transform="translate(74.019 70.516)" fill="#2f2e41"/>
    <circle id="Ellipse_43" data-name="Ellipse 43" cx="4.317" cy="4.317" r="4.317" transform="translate(73.433 76.619) rotate(-28.663)" fill="#a0616a"/>
    <path id="Path_122" data-name="Path 122" d="M795.882,652.694a5.872,5.872,0,0,1-3.356,1.037,3.6,3.6,0,0,0,1.426.587,11.84,11.84,0,0,1-4.836.027A3.13,3.13,0,0,1,788.1,654a1.281,1.281,0,0,1-.625-.836,1.727,1.727,0,0,1,.857-1.528,6.322,6.322,0,0,1,5.313-1.062,2.909,2.909,0,0,1,1.573.889,1.433,1.433,0,0,1,.132,1.7Z" transform="translate(-712.054 -577.073)" fill="#2f2e41"/>
    <path id="Path_123" data-name="Path 123" d="M746.12,595.735c-.094-.007-.19-.013-.286-.017-.193-.01-.388-.014-.584-.014a11.889,11.889,0,0,0-11.008,16.378c.039.1.079.192.122.286a11.975,11.975,0,0,0,4.7,5.375l.076.044c.064.039.127.076.19.11.107.064.215.125.323.183l.222.114a11.7,11.7,0,0,0,2.6.959c.186.046.372.086.563.12a11.865,11.865,0,0,0,2.214.208c.188,0,.374,0,.561-.013.26-.011.52-.033.776-.062q.466-.052.92-.14a11.934,11.934,0,0,0,1.8-.5c.074-.029.149-.056.22-.084.2-.076.395-.157.588-.245q.318-.144.625-.3a12,12,0,0,0,4.893-4.751.348.348,0,0,1,.017-.031,11.885,11.885,0,0,0-9.527-17.62Zm10.551,14.04a11.559,11.559,0,0,1-1.241,3.426l-.03.054a11.646,11.646,0,0,1-4.819,4.666q-.3.159-.617.3c-.173.077-.351.152-.53.22-.074.029-.152.059-.228.084a11.3,11.3,0,0,1-1.55.444,11,11,0,0,1-1.182.186q-.367.041-.743.054c-.16.007-.321.011-.482.011a11.511,11.511,0,0,1-2.142-.2,11.079,11.079,0,0,1-1.272-.312,11.618,11.618,0,0,1-1.848-.749c-.069-.036-.137-.072-.2-.109-.1-.052-.195-.1-.289-.16-.072-.04-.143-.083-.213-.125l-.123-.074a11.7,11.7,0,0,1-4.505-5.122c-.043-.094-.084-.19-.125-.286a11.625,11.625,0,0,1,10.722-16.113c.2,0,.391,0,.584.016.1,0,.192.01.286.017a11.634,11.634,0,0,1,10.551,13.773Z" transform="translate(-665.694 -530.22)" fill="#3f3d56"/>
    <path id="Path_124" data-name="Path 124" d="M781.519,625.956a1.162,1.162,0,0,0-1.5-.862,1.88,1.88,0,0,0-1.166,1.479,2.121,2.121,0,0,0,.286,1.6,1.459,1.459,0,0,0,1.447.627,1.678,1.678,0,0,0,1.176-1.363,4.931,4.931,0,0,0-.121-1.891Z" transform="translate(-704.638 -555.361)" fill="#2f2e41"/>
    <path id="Path_125" data-name="Path 125" d="M843.346,632.507a1.162,1.162,0,0,0-1.5-.862,1.881,1.881,0,0,0-1.166,1.479,2.121,2.121,0,0,0,.286,1.6,1.459,1.459,0,0,0,1.446.627,1.678,1.678,0,0,0,1.176-1.363,4.93,4.93,0,0,0-.121-1.891Z" transform="translate(-757.616 -560.974)" fill="#2f2e41"/>
    <path id="Path_126" data-name="Path 126" d="M583.779,269.113a11.766,11.766,0,0,1-12.371.2,7.151,7.151,0,0,1,1.242-1.671,7.059,7.059,0,0,1,11.085,1.4C583.749,269.061,583.765,269.087,583.779,269.113Z" transform="translate(-526.92 -247.325)" fill="#6c63ff"/>
    <circle id="Ellipse_44-4" data-name="Ellipse 44" cx="5.839" cy="5.839" r="5.839" transform="translate(44.318 3.793)" fill="#2f2e41"/>
    <circle id="Ellipse_45" data-name="Ellipse 45" cx="4.346" cy="4.346" r="4.346" transform="translate(44.219 13.396) rotate(-61.337)" fill="#ffb8b8"/>
    <path id="Path_127" data-name="Path 127" d="M582.827,186.628a5.911,5.911,0,0,0,3.378,1.044,3.622,3.622,0,0,1-1.436.591,11.918,11.918,0,0,0,4.868.027,3.151,3.151,0,0,0,1.019-.35,1.29,1.29,0,0,0,.629-.841,1.738,1.738,0,0,0-.863-1.538,6.364,6.364,0,0,0-5.348-1.069,2.929,2.929,0,0,0-1.584.9,1.443,1.443,0,0,0-.133,1.713Z" transform="translate(-536.704 -177.695)" fill="#2f2e41"/>
    <path id="Path_128" data-name="Path 128" d="M542.331,138.144a11.9,11.9,0,0,0-11.89,11.889,11.779,11.779,0,0,0,.352,2.852c.024.1.049.192.074.286a11.889,11.889,0,0,0,22.934,0c.026-.1.05-.191.073-.287a11.9,11.9,0,0,0-11.544-14.741ZM553.6,152.885c-.023.1-.049.192-.076.286a11.622,11.622,0,0,1-22.385,0c-.027-.1-.053-.19-.077-.286a11.507,11.507,0,0,1-.359-2.852,11.625,11.625,0,1,1,22.9,2.852Z" transform="translate(-491.816 -138.144)" fill="#3f3d56"/>
    <path id="Path_129" data-name="Path 129" d="M314.412,557.247a11.766,11.766,0,0,1-12.371.2c.02-.039.041-.077.064-.115a7.063,7.063,0,0,1,12.239-.2c.009.012.016.024.023.036Z" transform="translate(-296.103 -494.222)" fill="#6c63ff"/>
    <path id="Path_130" data-name="Path 130" d="M312.53,458.623a5.811,5.811,0,1,1-1.7-4.137A5.839,5.839,0,0,1,312.53,458.623Z" transform="translate(-295.084 -407.754)" fill="#2f2e41"/>
    <path id="Path_131" data-name="Path 131" d="M323.385,483.368a4.5,4.5,0,0,1-.23.491,4.341,4.341,0,1,1,.23-.491Z" transform="translate(-307.203 -428.871)" fill="#a0616a"/>
    <path id="Path_132" data-name="Path 132" d="M281.691,430.107c-.092-.1-.187-.2-.286-.295a11.881,11.881,0,1,0,0,16.881c.1-.1.193-.193.286-.293A11.88,11.88,0,0,0,281.691,430.107Zm-.286,16.209a11.667,11.667,0,0,1-2.092,1.716l0,0a11.635,11.635,0,0,1-12.232.195h0A11.624,11.624,0,1,1,281.4,430.187c.1.1.193.2.286.308a11.62,11.62,0,0,1,0,15.514C281.6,446.113,281.5,446.216,281.4,446.316Z" transform="translate(-261.071 -385.12)" fill="#3f3d56"/>
    <path id="Path_133" data-name="Path 133" d="M318.7,450.637a3.075,3.075,0,0,0-2.835-1.508,6.027,6.027,0,0,0-1.713.48l-2.82,1.1a2.286,2.286,0,0,0-1.7,3.475l1.055,3.291a10.019,10.019,0,0,1,.6-2.174,3.366,3.366,0,0,1,1.461-1.666,4.765,4.765,0,0,1,2.418-.328,4.833,4.833,0,0,1,3.258,1.026,3.385,3.385,0,0,1,.859,1.677,10.1,10.1,0,0,1,.18,1.9,15.74,15.74,0,0,0,1.2-2.577,6.376,6.376,0,0,0,.447-2.086,2.934,2.934,0,0,0-.672-1.984,1.924,1.924,0,0,0-1.935-.609" transform="translate(-302.364 -404.617)" fill="#2f2e41"/>
    <path id="Path_134" data-name="Path 134" d="M310.87,344.8l-.286,0c0-.286.012-.577.024-.863l.286.013C310.882,344.228,310.874,344.515,310.87,344.8Z" transform="translate(-303.424 -314.48)" fill="#e6e6e6"/>
    <path id="Path_135" data-name="Path 135" d="M311.928,196.033l-.285-.031c.06-.547.138-1.1.233-1.64l.282.049C312.065,194.947,311.987,195.492,311.928,196.033Zm.564-3.225-.278-.067c.13-.535.278-1.072.442-1.6l.273.085c-.162.519-.309,1.05-.437,1.579Zm.976-3.127-.267-.1c.2-.513.415-1.027.646-1.527l.26.12c-.228.494-.443,1-.638,1.51Zm1.373-2.976-.252-.136c.262-.483.544-.965.837-1.431l.242.152c-.29.461-.568.937-.827,1.415Zm1.744-2.774-.232-.168c.322-.446.663-.887,1.013-1.312l.221.182c-.346.42-.683.856-1,1.3Zm2.084-2.527-.209-.2c.376-.4.77-.795,1.172-1.171l.2.209c-.4.372-.787.762-1.159,1.158Zm2.389-2.24-.182-.221c.424-.35.865-.69,1.311-1.012l.168.232c-.441.318-.877.655-1.3,1Zm2.654-1.916-.152-.242c.466-.293.946-.574,1.429-.836l.136.252c-.478.259-.953.537-1.414.826Zm2.877-1.56-.12-.26c.5-.23,1.012-.447,1.524-.645l.1.267c-.507.2-1.014.41-1.507.637Zm3.052-1.176-.085-.273c.525-.164,1.062-.313,1.6-.443l.068.278c-.529.128-1.06.276-1.578.438Zm3.182-.773-.049-.282c.541-.095,1.093-.173,1.64-.233l.031.285c-.541.059-1.087.137-1.622.231Z" transform="translate(-304.332 -168.204)" fill="#e6e6e6"/>
    <path id="Path_136" data-name="Path 136" d="M482.371,172.467l-.013-.286c.287-.013.577-.021.863-.025l0,.286C482.942,172.446,482.655,172.454,482.371,172.467Z" transform="translate(-450.614 -167.289)" fill="#e6e6e6"/>
    <path id="Path_137" data-name="Path 137" d="M44.887,203.922l-.2-.2-.987,1.009-.935-1.058-.215.19,1.138,1.288Z" transform="translate(-36.384 -174.524)" fill="#e6e6e6"/>
    <path id="Path_138" data-name="Path 138" d="M219.422,29.387l-.2-.2,1.009-.987-1.058-.935.19-.215,1.288,1.138Z" transform="translate(-187.732 -23.176)" fill="#e6e6e6"/>
    <path id="Path_139" data-name="Path 139" d="M776.638,190.228q-.378-.2-.761-.391l.128-.256q.386.193.767.393Z" transform="translate(-702.126 -182.22)" fill="#e6e6e6"/>
    <path id="Path_140" data-name="Path 140" d="M809.607,250.393l-.265-.109c.215-.525.422-1.061.615-1.593l.269.1C810.032,249.324,809.824,249.864,809.607,250.393Zm1.174-3.232-.273-.087c.172-.54.334-1.092.483-1.638l.276.075c-.15.55-.314,1.105-.487,1.65Zm.905-3.318-.279-.064c.127-.553.243-1.116.347-1.673l.281.052c-.1.561-.222,1.127-.349,1.684Zm.629-3.381-.283-.041c.081-.561.151-1.132.208-1.7l.285.029c-.058.568-.128,1.142-.209,1.707Zm.348-3.422-.286-.017c.034-.566.057-1.14.068-1.707l.286.005c-.011.571-.034,1.149-.068,1.719Zm.066-3.439-.286.006q-.008-.373-.023-.746c-.013-.319-.03-.642-.05-.961l.286-.018c.02.321.037.647.05.968Q812.72,233.224,812.728,233.6Zm-.5-3.4c-.059-.564-.13-1.134-.212-1.695l.283-.041c.082.564.154,1.139.214,1.706Zm-.493-3.38c-.1-.557-.222-1.119-.349-1.672l.279-.064c.128.557.247,1.123.352,1.684Zm-.767-3.329c-.15-.547-.313-1.1-.484-1.639l.273-.087c.173.544.337,1.1.488,1.65Zm-1.035-3.256c-.194-.533-.4-1.069-.616-1.594l.265-.109c.217.528.425,1.068.62,1.6Zm-1.3-3.162c-.237-.516-.487-1.033-.744-1.539l.255-.13c.259.509.511,1.03.749,1.549Zm-1.55-3.046c-.278-.495-.569-.99-.867-1.473l.244-.15c.3.486.594.985.873,1.483Zm-1.794-2.91c-.317-.47-.649-.941-.985-1.4l.23-.17c.339.46.672.933.992,1.407Zm-2.027-2.754c-.355-.443-.724-.885-1.1-1.312l.216-.188c.375.43.747.875,1.1,1.321Zm-2.247-2.578c-.391-.413-.795-.822-1.2-1.218l.2-.205c.41.4.817.811,1.21,1.226Zm-2.453-2.385c-.423-.379-.86-.754-1.3-1.115l.182-.221c.441.363.881.741,1.307,1.122Zm-2.642-2.175c-.451-.341-.917-.679-1.384-1l.163-.235c.47.326.939.666,1.393,1.009Zm-2.807-1.947c-.478-.3-.969-.6-1.461-.886l.143-.248c.5.287.99.587,1.471.892Z" transform="translate(-715.644 -189.557)" fill="#e6e6e6"/>
    <path id="Path_141" data-name="Path 141" d="M908.206,574.334l-.258-.124q.186-.386.364-.775l.26.119Q908.394,573.945,908.206,574.334Z" transform="translate(-815.296 -511.138)" fill="#e6e6e6"/>
    <path id="Path_142" data-name="Path 142" d="M513.881,50.275l.27-.1-.47-1.331,1.362-.372-.076-.276-1.658.453Z" transform="translate(-439.771 -41.303)" fill="#e6e6e6"/>
    <path id="Path_143" data-name="Path 143" d="M643.078,431.141l.272-.09.44,1.341,1.305-.537.109.265-1.59.654Z" transform="translate(-550.969 -369.361)" fill="#e6e6e6"/>
  </g>
</svg>
