<svg xmlns="http://www.w3.org/2000/svg" width="55.711" height="50" viewBox="0 0 55.711 50">
  <g id="Group_1" data-name="Group 1" transform="translate(-0.006 -0.006)">
    <path id="Path_1" data-name="Path 1" d="M237.776,99.174l-1.829.467-22.538,5.752-1.829.467a3.425,3.425,0,0,0-2.486,4.171l7.932,30.443a3.467,3.467,0,0,0,4.214,2.461h0l26.187-6.684h0a3.425,3.425,0,0,0,2.486-4.171l-7.932-30.443A3.467,3.467,0,0,0,237.776,99.174Z" transform="translate(-208.978 -99.06)" fill="#f2f2f2"/>
    <path id="Path_2" data-name="Path 2" d="M250.883,113l-2.167.553-21.863,5.577-2.167.553a2.438,2.438,0,0,0-1.77,2.969l7.932,30.428a2.469,2.469,0,0,0,3,1.751h0l26.187-6.68h0a2.438,2.438,0,0,0,1.77-2.969l-7.932-30.428A2.469,2.469,0,0,0,250.883,113Z" transform="translate(-221.836 -111.918)" fill="#fff"/>
    <path id="Path_3" data-name="Path 3" d="M409.867,237.921l-13.247,3.416a.576.576,0,0,1-.288-1.116l13.247-3.416a.576.576,0,1,1,.288,1.116Z" transform="translate(-382.62 -226.979)" fill="#f2f2f2"/>
    <path id="Path_4" data-name="Path 4" d="M418.922,255.857l-15.548,4.01a.576.576,0,1,1-.288-1.116l15.548-4.01a.576.576,0,1,1,.288,1.116Z" transform="translate(-388.904 -243.639)" fill="#f2f2f2"/>
    <path id="Path_5" data-name="Path 5" d="M440.135,355.295l-13.247,3.416a.576.576,0,1,1-.288-1.116l13.247-3.416a.576.576,0,1,1,.288,1.116Z" transform="translate(-410.739 -335.999)" fill="#f2f2f2"/>
    <path id="Path_6" data-name="Path 6" d="M449.19,373.231l-15.548,4.01a.576.576,0,0,1-.288-1.116l15.548-4.01a.576.576,0,1,1,.288,1.116Z" transform="translate(-417.025 -352.661)" fill="#f2f2f2"/>
    <path id="Path_7" data-name="Path 7" d="M470.4,472.668l-13.247,3.416a.576.576,0,0,1-.288-1.116l13.247-3.416a.576.576,0,0,1,.288,1.116Z" transform="translate(-438.858 -445.018)" fill="#f2f2f2"/>
    <path id="Path_8" data-name="Path 8" d="M479.459,490.6l-15.548,4.01a.576.576,0,0,1-.288-1.116l15.548-4.01a.576.576,0,0,1,.288,1.116Z" transform="translate(-445.146 -461.681)" fill="#f2f2f2"/>
    <path id="Path_9" data-name="Path 9" d="M295.584,287.913l-4.688,1.209a.277.277,0,0,1-.336-.2l-1.076-4.173a.277.277,0,0,1,.2-.336l4.688-1.209a.277.277,0,0,1,.336.2l1.076,4.173A.277.277,0,0,1,295.584,287.913Z" transform="translate(-283.682 -270.09)" fill="#e6e6e6"/>
    <path id="Path_10" data-name="Path 10" d="M325.852,405.287l-4.688,1.209a.277.277,0,0,1-.336-.2l-1.076-4.173a.277.277,0,0,1,.2-.336l4.688-1.209a.276.276,0,0,1,.336.2l1.076,4.173A.277.277,0,0,1,325.852,405.287Z" transform="translate(-311.774 -379.112)" fill="#e6e6e6"/>
    <path id="Path_11" data-name="Path 11" d="M356.12,522.661l-4.688,1.209a.277.277,0,0,1-.336-.2l-1.076-4.173a.277.277,0,0,1,.2-.336l4.688-1.209a.277.277,0,0,1,.336.2l1.076,4.173A.277.277,0,0,1,356.12,522.661Z" transform="translate(-339.97 -488.135)" fill="#e6e6e6"/>
    <path id="Path_12" data-name="Path 12" d="M469.706,209.052H442.653a3.464,3.464,0,0,0-3.46,3.46v31.766a3.464,3.464,0,0,0,3.46,3.46h27.053a3.464,3.464,0,0,0,3.46-3.46V212.512A3.464,3.464,0,0,0,469.706,209.052Z" transform="translate(-423.147 -201.596)" fill="#e6e6e6"/>
    <path id="Path_13" data-name="Path 13" d="M482.564,222.906H455.511a2.467,2.467,0,0,0-2.464,2.464v31.766a2.466,2.466,0,0,0,2.464,2.464h27.053a2.466,2.466,0,0,0,2.464-2.464V225.37A2.466,2.466,0,0,0,482.564,222.906Z" transform="translate(-436.005 -214.454)" fill="#fff"/>
    <circle id="Ellipse_5" data-name="Ellipse 5" cx="6.315" cy="6.315" r="6.315" transform="translate(43.086 37.375)" fill="#6c63ff"/>
    <path id="Path_14" data-name="Path 14" d="M856.562,662.636h-2.2v-2.2a.824.824,0,0,0-1.648,0v2.2h-2.2a.824.824,0,1,0,0,1.648h2.2v2.2a.824.824,0,1,0,1.647,0v-2.2h2.2a.824.824,0,1,0,0-1.648Z" transform="translate(-804.14 -619.769)" fill="#fff"/>
    <path id="Path_15" data-name="Path 15" d="M622.942,450.84H609.261a.576.576,0,0,1,0-1.152h13.681a.576.576,0,0,1,0,1.152Z" transform="translate(-580.298 -424.71)" fill="#e6e6e6"/>
    <path id="Path_16" data-name="Path 16" d="M625.318,477.887H609.261a.576.576,0,0,1,0-1.152h16.057a.576.576,0,1,1,0,1.152Z" transform="translate(-580.32 -449.83)" fill="#e6e6e6"/>
    <path id="Path_17" data-name="Path 17" d="M622.942,572.053H609.261a.576.576,0,0,1,0-1.152h13.681a.576.576,0,0,1,0,1.152Z" transform="translate(-580.298 -537.29)" fill="#e6e6e6"/>
    <path id="Path_18" data-name="Path 18" d="M625.318,599.1H609.261a.576.576,0,0,1,0-1.152h16.057a.576.576,0,1,1,0,1.152Z" transform="translate(-580.32 -562.411)" fill="#e6e6e6"/>
    <path id="Path_19" data-name="Path 19" d="M508,442.271h-4.841a.277.277,0,0,1-.276-.276v-4.31a.277.277,0,0,1,.276-.276H508a.277.277,0,0,1,.276.276V442A.277.277,0,0,1,508,442.271Z" transform="translate(-481.959 -413.324)" fill="#e6e6e6"/>
    <path id="Path_20" data-name="Path 20" d="M508,563.484h-4.841a.277.277,0,0,1-.276-.276V558.9a.277.277,0,0,1,.276-.276H508a.277.277,0,0,1,.276.276v4.31A.277.277,0,0,1,508,563.484Z" transform="translate(-481.959 -525.911)" fill="#e6e6e6"/>
    <path id="Path_21" data-name="Path 21" d="M669.558,315.905H659.472a.576.576,0,1,1,0-1.152h10.086a.576.576,0,0,1,0,1.152Z" transform="translate(-626.912 -299.385)" fill="#ccc"/>
    <path id="Path_22" data-name="Path 22" d="M671.935,342.953H659.472a.576.576,0,1,1,0-1.152h12.463a.576.576,0,0,1,0,1.152Z" transform="translate(-626.933 -324.507)" fill="#ccc"/>
    <path id="Path_23" data-name="Path 23" d="M512.245,289.784h-9.3a.277.277,0,0,1-.276-.276V282.25a.277.277,0,0,1,.276-.276h9.3a.277.277,0,0,1,.276.276v7.257A.277.277,0,0,1,512.245,289.784Z" transform="translate(-481.783 -268.96)" fill="#6c63ff"/>
  </g>
</svg>
