<svg xmlns="http://www.w3.org/2000/svg" width="54.699" height="16.765" viewBox="0 0 54.699 16.765">
  <path id="Icon_simple-visa" data-name="Icon simple-visa" d="M39.759,13.169a11.376,11.376,0,0,0-3.966-.686c-4.376,0-7.464,2.206-7.487,5.367-.027,2.325,2.2,3.633,3.877,4.412,1.725.8,2.3,1.3,2.3,2.017-.011,1.087-1.379,1.579-2.648,1.579A9.369,9.369,0,0,1,27.659,25l-.545-.253L26.5,28.393a14.811,14.811,0,0,0,4.957.855c4.652,0,7.692-2.19,7.728-5.559.036-1.853-1.162-3.259-3.694-4.417-1.536-.752-2.493-1.256-2.493-2.019,0-.675.818-1.395,2.528-1.395a8.114,8.114,0,0,1,3.316.622l.41.185.618-3.519-.107.023Zm11.357-.387H47.7a2.212,2.212,0,0,0-2.327,1.347L38.8,29.02h4.652l.93-2.439,5.675,0c.139.57.547,2.434.547,2.434h4.1L51.116,12.782Zm-29.1-.137h4.428L23.675,28.893H19.245L22.016,12.64ZM10.76,21.6l.46,2.256,4.333-11.074h4.693L13.269,29H8.588L4.759,15.264a.907.907,0,0,0-.41-.54A18.714,18.714,0,0,0,0,13.112l.057-.342H7.193a1.854,1.854,0,0,1,2.012,1.377l1.554,7.46V21.6Zm34.889,1.657,1.766-4.545c-.023.046.365-.939.588-1.55l.3,1.4,1.023,4.688H45.648v0Z" transform="translate(0 -12.483)" fill="#efefef"/>
</svg>
